<svg width="33" height="40" viewBox="0 0 33 40" fill="none" xmlns="http://www.w3.org/2000/svg">
<path fill-rule="evenodd" clip-rule="evenodd" d="M5.90002 12.46H9.83502V19.6725H19.0175V23.6075H9.83502V32.7875H19.0175V36.72H7.86752C7.34658 36.7193 6.84716 36.5121 6.47879 36.1437C6.11042 35.7753 5.90319 35.2759 5.90252 34.755L5.90002 12.46Z" fill="#545454"/>
<path fill-rule="evenodd" clip-rule="evenodd" d="M0 4.59C0 2.055 2.055 0 4.59 0H24.2625C26.7975 0 28.8525 2.055 28.8525 4.59V9.18C28.8525 10.3973 28.3689 11.5648 27.5081 12.4256C26.6473 13.2864 25.4798 13.77 24.2625 13.77H4.59C3.37266 13.77 2.20517 13.2864 1.34438 12.4256C0.483588 11.5648 0 10.3973 0 9.18V4.59ZM4.59 3.935C4.41628 3.935 4.24968 4.00401 4.12684 4.12684C4.00401 4.24968 3.935 4.41628 3.935 4.59V9.18C3.935 9.5425 4.2275 9.835 4.59 9.835H24.2625C24.4362 9.835 24.6028 9.76599 24.7257 9.64316C24.8485 9.52032 24.9175 9.35372 24.9175 9.18V4.59C24.9175 4.41628 24.8485 4.24968 24.7257 4.12684C24.6028 4.00401 24.4362 3.935 24.2625 3.935H4.59ZM17.05 20.9825C17.05 18.4475 19.105 16.3925 21.64 16.3925H28.1975C30.7325 16.3925 32.7875 18.4475 32.7875 20.9825V22.295C32.7875 23.5123 32.3039 24.6798 31.4431 25.5406C30.5823 26.4014 29.4148 26.885 28.1975 26.885H21.64C20.4227 26.885 19.2552 26.4014 18.3944 25.5406C17.5336 24.6798 17.05 23.5123 17.05 22.295V20.9825ZM21.64 20.3275C21.5538 20.3272 21.4683 20.3439 21.3886 20.3766C21.3088 20.4094 21.2363 20.4576 21.1752 20.5185C21.1141 20.5793 21.0657 20.6516 21.0326 20.7313C20.9995 20.8109 20.9825 20.8963 20.9825 20.9825V22.295C20.9825 22.6575 21.2775 22.95 21.64 22.95H28.1975C28.3712 22.95 28.5378 22.881 28.6607 22.7582C28.7835 22.6353 28.8525 22.4687 28.8525 22.295V20.9825C28.8525 20.8088 28.7835 20.6422 28.6607 20.5193C28.5378 20.3965 28.3712 20.3275 28.1975 20.3275H21.64ZM17.05 34.1C17.05 31.5625 19.105 29.5075 21.64 29.5075H28.1975C30.7325 29.5075 32.7875 31.5625 32.7875 34.0975V35.41C32.7875 36.6273 32.3039 37.7948 31.4431 38.6556C30.5823 39.5164 29.4148 40 28.1975 40H21.64C20.4227 40 19.2552 39.5164 18.3944 38.6556C17.5336 37.7948 17.05 36.6273 17.05 35.41V34.1ZM21.64 33.4425C21.5538 33.4422 21.4683 33.4589 21.3886 33.4916C21.3088 33.5244 21.2363 33.5726 21.1752 33.6335C21.1141 33.6943 21.0657 33.7666 21.0326 33.8463C20.9995 33.9259 20.9825 34.0113 20.9825 34.0975V35.41C20.9825 35.7725 21.2775 36.065 21.64 36.065H28.1975C28.3712 36.065 28.5378 35.996 28.6607 35.8732C28.7835 35.7503 28.8525 35.5837 28.8525 35.41V34.0975C28.8525 33.9238 28.7835 33.7572 28.6607 33.6343C28.5378 33.5115 28.3712 33.4425 28.1975 33.4425H21.64Z" fill="#545454"/>
</svg>
