<svg width="47" height="47" viewBox="0 0 47 47" fill="none" xmlns="http://www.w3.org/2000/svg">
<path d="M23.5 0C10.575 0 0 10.575 0 23.5C0 36.425 10.575 47 23.5 47C36.425 47 47 36.425 47 23.5C47 10.575 36.425 0 23.5 0ZM23.5 5.875C33.2525 5.875 41.125 13.7475 41.125 23.5C41.125 33.2525 33.2525 41.125 23.5 41.125C13.7475 41.125 5.875 33.2525 5.875 23.5C5.875 13.7475 13.7475 5.875 23.5 5.875ZM20.5625 11.75V24.7925L21.5025 25.5562L24.44 28.4937L26.4375 30.7262L30.6675 26.4963L28.435 24.4988L26.4375 22.5012V11.8675H20.5625V11.75Z" fill="#B67332"/>
</svg>
