<svg width="15" height="11" viewBox="0 0 15 11" fill="none" xmlns="http://www.w3.org/2000/svg">
<path d="M6.707 10.707C6.51947 10.8944 6.26516 10.9998 6 10.9998C5.73484 10.9998 5.48053 10.8944 5.293 10.707L0.793 6.20697C0.605529 6.01944 0.500214 5.76513 0.500214 5.49997C0.500214 5.23481 0.605529 4.9805 0.793 4.79297L5.293 0.29297C5.4816 0.110811 5.7342 0.0100174 5.9964 0.0122957C6.2586 0.0145741 6.50941 0.119743 6.69482 0.305151C6.88023 0.490559 6.9854 0.741372 6.98767 1.00357C6.98995 1.26577 6.88916 1.51837 6.707 1.70697L4 4.49997L13.5 4.49997C13.7652 4.49997 14.0196 4.60533 14.2071 4.79286C14.3946 4.9804 14.5 5.23475 14.5 5.49997C14.5 5.76519 14.3946 6.01954 14.2071 6.20708C14.0196 6.39461 13.7652 6.49997 13.5 6.49997L4 6.49997L6.707 9.29297C6.89447 9.4805 6.99979 9.73481 6.99979 9.99997C6.99979 10.2651 6.89447 10.5194 6.707 10.707Z" fill="#93441A"/>
</svg>
