<svg width="71" height="52" viewBox="0 0 71 52" fill="none" xmlns="http://www.w3.org/2000/svg">
<path d="M62.6364 42.5455C63.5763 42.5444 64.4775 42.1705 65.1422 41.5058C65.8068 40.8411 66.1807 39.94 66.1818 39V3.54545C66.1807 2.60548 65.8068 1.70431 65.1422 1.03965C64.4775 0.374984 63.5763 0.00109473 62.6364 0H8.27274C7.33276 0.00109473 6.4316 0.374984 5.76693 1.03965C5.10227 1.70431 4.72838 2.60548 4.72728 3.54545V39C4.72838 39.94 5.10227 40.8411 5.76693 41.5058C6.4316 42.1705 7.33276 42.5444 8.27274 42.5455H62.6364ZM9.45456 4.72727H61.4546V37.8182H9.45456V4.72727Z" fill="#B67332"/>
<path d="M70.9091 47.2728H0V52H70.9091V47.2728Z" fill="#B67332"/>
</svg>
