<svg width="313" height="66" viewBox="0 0 313 66" fill="none" xmlns="http://www.w3.org/2000/svg">
<rect width="313" height="66" rx="24.8276" fill="#DAAB3A"/>
<path d="M119.624 40.328C119.624 39.96 119.656 39.528 119.72 39.032C119.784 38.536 119.904 37.976 120.08 37.352C120.256 36.712 120.52 36 120.872 35.216L123.824 36.248C123.648 36.744 123.496 37.2 123.368 37.616C123.24 38.016 123.144 38.392 123.08 38.744C123.016 39.08 122.984 39.416 122.984 39.752C122.984 40.568 123.16 41.24 123.512 41.768C123.88 42.296 124.392 42.688 125.048 42.944C125.704 43.2 126.464 43.328 127.328 43.328C128.48 43.328 129.392 43.136 130.064 42.752C130.736 42.368 131.224 41.832 131.528 41.144C131.832 40.472 132.016 39.688 132.08 38.792C132.16 37.88 132.184 36.912 132.152 35.888L131.696 23.432H135.08L135.488 35.672C135.52 36.712 135.48 37.752 135.368 38.792C135.272 39.832 135.056 40.816 134.72 41.744C134.4 42.672 133.928 43.496 133.304 44.216C132.68 44.936 131.872 45.504 130.88 45.92C129.904 46.336 128.696 46.544 127.256 46.544C126.216 46.544 125.232 46.424 124.304 46.184C123.392 45.944 122.584 45.568 121.88 45.056C121.176 44.56 120.624 43.92 120.224 43.136C119.824 42.352 119.624 41.416 119.624 40.328ZM138.157 46.52L137.461 43.16C138.597 43.016 139.589 42.84 140.437 42.632C141.285 42.44 141.997 42.168 142.573 41.816C143.149 41.464 143.581 40.984 143.869 40.376C144.157 39.752 144.301 38.952 144.301 37.976C144.301 37.032 144.157 36.28 143.869 35.72C143.581 35.16 143.197 34.88 142.717 34.88C142.381 34.88 142.101 35 141.877 35.24C141.653 35.464 141.485 35.736 141.373 36.056C141.277 36.36 141.229 36.632 141.229 36.872C141.229 37.016 141.269 37.168 141.349 37.328C141.429 37.488 141.605 37.624 141.877 37.736C142.149 37.848 142.573 37.912 143.149 37.928C143.741 37.944 144.541 37.888 145.549 37.76H149.581C150.189 37.76 150.621 37.92 150.877 38.24C151.149 38.544 151.285 38.928 151.285 39.392C151.285 39.888 151.117 40.304 150.781 40.64C150.445 40.96 149.965 41.12 149.341 41.12H142.741C141.733 41.12 140.869 41 140.149 40.76C139.429 40.52 138.877 40.136 138.493 39.608C138.109 39.064 137.917 38.344 137.917 37.448C137.917 36.728 138.037 36.008 138.277 35.288C138.533 34.568 138.885 33.912 139.333 33.32C139.781 32.712 140.301 32.232 140.893 31.88C141.501 31.512 142.157 31.328 142.861 31.328C143.821 31.328 144.661 31.624 145.381 32.216C146.101 32.808 146.661 33.592 147.061 34.568C147.477 35.544 147.685 36.608 147.685 37.76C147.685 39.568 147.301 41.104 146.533 42.368C145.765 43.632 144.669 44.608 143.245 45.296C141.821 46 140.125 46.408 138.157 46.52ZM149.375 41.12L149.615 37.76C150.479 37.76 151.335 37.712 152.183 37.616C153.031 37.52 153.855 37.376 154.655 37.184C155.455 36.992 156.215 36.744 156.935 36.44C157.671 36.136 158.359 35.768 158.999 35.336C158.519 35.048 157.999 34.8 157.439 34.592C156.879 34.384 156.279 34.232 155.639 34.136C155.015 34.024 154.351 33.968 153.647 33.968C153.391 33.968 153.119 33.976 152.831 33.992C152.559 34.008 152.279 34.04 151.991 34.088C151.703 34.12 151.415 34.168 151.127 34.232L150.647 30.944C151.111 30.816 151.599 30.728 152.111 30.68C152.639 30.616 153.103 30.584 153.503 30.584C154.367 30.584 155.159 30.68 155.879 30.872C156.615 31.064 157.287 31.304 157.895 31.592C158.519 31.88 159.095 32.168 159.623 32.456C160.167 32.744 160.679 32.984 161.159 33.176C161.655 33.368 162.135 33.464 162.599 33.464H163.487L163.871 36.656C163.183 36.688 162.535 36.824 161.927 37.064C161.335 37.288 160.743 37.576 160.151 37.928C159.575 38.264 158.951 38.616 158.279 38.984C157.623 39.352 156.879 39.696 156.047 40.016C155.215 40.336 154.255 40.6 153.167 40.808C152.079 41.016 150.815 41.12 149.375 41.12ZM153.527 28.352C153.031 28.352 152.607 28.184 152.255 27.848C151.919 27.512 151.751 27.096 151.751 26.6C151.751 26.104 151.919 25.68 152.255 25.328C152.607 24.976 153.031 24.8 153.527 24.8C154.007 24.8 154.415 24.976 154.751 25.328C155.103 25.68 155.279 26.104 155.279 26.6C155.279 27.096 155.103 27.512 154.751 27.848C154.415 28.184 154.007 28.352 153.527 28.352ZM169.701 37.76C170.421 37.76 170.973 37.696 171.357 37.568C171.741 37.44 172.005 37.272 172.149 37.064C172.293 36.856 172.365 36.632 172.365 36.392C172.365 36.008 172.253 35.56 172.029 35.048C171.821 34.536 171.557 34 171.237 33.44C170.917 32.88 170.581 32.344 170.229 31.832C169.893 31.32 169.589 30.872 169.317 30.488L172.173 28.592C172.861 29.52 173.453 30.44 173.949 31.352C174.445 32.248 174.845 33.08 175.149 33.848C175.469 34.616 175.693 35.272 175.821 35.816C175.949 36.328 176.141 36.728 176.397 37.016C176.669 37.288 176.981 37.48 177.333 37.592C177.685 37.704 178.037 37.76 178.389 37.76C178.997 37.76 179.429 37.92 179.685 38.24C179.957 38.544 180.093 38.928 180.093 39.392C180.093 39.888 179.925 40.304 179.589 40.64C179.269 40.96 178.789 41.12 178.149 41.12C177.445 41.12 176.829 41.024 176.301 40.832C175.773 40.64 175.325 40.336 174.957 39.92C174.589 39.504 174.277 38.976 174.021 38.336L175.485 38.648C175.357 39.096 175.061 39.512 174.597 39.896C174.149 40.264 173.549 40.568 172.797 40.808C172.061 41.032 171.189 41.144 170.181 41.144C169.701 41.144 169.165 41.104 168.573 41.024C167.997 40.944 167.421 40.824 166.845 40.664C166.285 40.504 165.773 40.296 165.309 40.04L166.485 36.992C167.077 37.248 167.645 37.44 168.189 37.568C168.749 37.696 169.253 37.76 169.701 37.76ZM178.18 41.12L178.42 37.76C179.156 37.76 179.684 37.688 180.004 37.544C180.324 37.384 180.516 37.096 180.58 36.68C180.644 36.248 180.66 35.624 180.628 34.808L180.196 23.432H183.58L184.06 35.048C184.092 35.976 184.052 36.816 183.94 37.568C183.844 38.304 183.596 38.936 183.196 39.464C182.812 39.992 182.212 40.4 181.396 40.688C180.596 40.976 179.524 41.12 178.18 41.12ZM187.225 41L186.721 23.432H190.081L190.585 41H187.225ZM198.444 40.328C198.444 39.96 198.476 39.528 198.54 39.032C198.604 38.536 198.724 37.976 198.9 37.352C199.076 36.712 199.34 36 199.692 35.216L202.644 36.248C202.468 36.744 202.316 37.2 202.188 37.616C202.06 38.016 201.964 38.392 201.9 38.744C201.836 39.08 201.804 39.416 201.804 39.752C201.804 40.472 201.98 41.096 202.332 41.624C202.7 42.168 203.196 42.584 203.82 42.872C204.46 43.176 205.196 43.328 206.028 43.328C207.388 43.328 208.428 43.104 209.148 42.656C209.884 42.224 210.38 41.536 210.636 40.592C210.908 39.632 211.012 38.392 210.948 36.872L210.468 23.432H213.852L214.212 34.784C214.244 35.584 214.356 36.2 214.548 36.632C214.74 37.064 215.036 37.36 215.436 37.52C215.852 37.68 216.388 37.76 217.044 37.76C217.652 37.76 218.084 37.92 218.34 38.24C218.596 38.544 218.724 38.928 218.724 39.392C218.724 39.888 218.556 40.304 218.22 40.64C217.884 40.96 217.412 41.12 216.804 41.12C216.452 41.12 216.076 41.072 215.676 40.976C215.276 40.88 214.892 40.728 214.524 40.52C214.156 40.312 213.836 40.04 213.564 39.704C213.292 39.352 213.108 38.92 213.012 38.408L214.308 37.76C214.308 39.376 214.116 40.744 213.732 41.864C213.364 42.984 212.82 43.888 212.1 44.576C211.396 45.264 210.524 45.76 209.484 46.064C208.46 46.384 207.276 46.544 205.932 46.544C204.908 46.544 203.94 46.416 203.028 46.16C202.132 45.904 201.34 45.52 200.652 45.008C199.964 44.496 199.42 43.848 199.02 43.064C198.636 42.296 198.444 41.384 198.444 40.328ZM216.805 41.12L217.045 37.76C217.621 37.76 218.117 37.704 218.533 37.592C218.949 37.48 219.301 37.256 219.589 36.92C219.877 36.568 220.117 36.056 220.309 35.384C220.517 34.712 220.701 33.816 220.861 32.696L224.005 33.224C223.973 33.464 223.925 33.744 223.861 34.064C223.813 34.384 223.765 34.712 223.717 35.048C223.685 35.368 223.669 35.672 223.669 35.96C223.669 36.248 223.725 36.504 223.837 36.728C223.949 36.952 224.125 37.144 224.365 37.304C224.621 37.448 224.949 37.56 225.349 37.64C225.765 37.72 226.269 37.76 226.861 37.76C227.469 37.76 227.901 37.92 228.157 38.24C228.413 38.544 228.541 38.928 228.541 39.392C228.541 39.888 228.373 40.304 228.037 40.64C227.717 40.96 227.245 41.12 226.621 41.12C225.901 41.12 225.245 41.064 224.653 40.952C224.077 40.84 223.573 40.656 223.141 40.4C222.725 40.128 222.381 39.776 222.109 39.344C221.853 38.896 221.693 38.352 221.629 37.712H222.781C222.493 38.48 222.125 39.096 221.677 39.56C221.245 40.008 220.757 40.344 220.213 40.568C219.669 40.792 219.101 40.936 218.509 41C217.933 41.08 217.365 41.12 216.805 41.12ZM223.501 46.688C223.037 46.688 222.637 46.52 222.301 46.184C221.981 45.864 221.821 45.48 221.821 45.032C221.821 44.568 221.981 44.168 222.301 43.832C222.637 43.496 223.037 43.328 223.501 43.328C223.949 43.328 224.333 43.496 224.653 43.832C224.973 44.168 225.133 44.568 225.133 45.032C225.133 45.48 224.973 45.864 224.653 46.184C224.333 46.52 223.949 46.688 223.501 46.688ZM219.349 46.688C218.885 46.688 218.485 46.52 218.149 46.184C217.829 45.864 217.669 45.48 217.669 45.032C217.669 44.568 217.829 44.168 218.149 43.832C218.485 43.496 218.885 43.328 219.349 43.328C219.797 43.328 220.181 43.496 220.501 43.832C220.821 44.168 220.981 44.568 220.981 45.032C220.981 45.48 220.821 45.864 220.501 46.184C220.181 46.52 219.797 46.688 219.349 46.688ZM242.321 41.12C241.585 41.12 240.897 41.064 240.257 40.952C239.633 40.84 239.057 40.648 238.529 40.376C238.001 40.088 237.529 39.696 237.113 39.2C236.713 38.704 236.377 38.08 236.105 37.328L238.001 35.816C238.289 36.328 238.641 36.728 239.057 37.016C239.473 37.288 239.969 37.48 240.545 37.592C241.121 37.704 241.793 37.76 242.561 37.76C243.169 37.76 243.601 37.92 243.857 38.24C244.113 38.544 244.241 38.928 244.241 39.392C244.241 39.888 244.073 40.304 243.737 40.64C243.417 40.96 242.945 41.12 242.321 41.12ZM226.625 41.12L226.865 37.76C227.729 37.76 228.585 37.712 229.433 37.616C230.281 37.52 231.105 37.376 231.905 37.184C232.705 36.992 233.465 36.744 234.185 36.44C234.921 36.136 235.609 35.768 236.249 35.336C235.769 35.048 235.249 34.8 234.689 34.592C234.129 34.384 233.529 34.232 232.889 34.136C232.265 34.024 231.601 33.968 230.897 33.968C230.641 33.968 230.369 33.976 230.081 33.992C229.809 34.008 229.529 34.04 229.241 34.088C228.953 34.12 228.665 34.168 228.377 34.232L227.897 30.944C228.361 30.816 228.849 30.728 229.361 30.68C229.889 30.616 230.353 30.584 230.753 30.584C231.617 30.584 232.409 30.68 233.129 30.872C233.865 31.064 234.537 31.304 235.145 31.592C235.769 31.88 236.345 32.168 236.873 32.456C237.417 32.744 237.929 32.984 238.409 33.176C238.905 33.368 239.385 33.464 239.849 33.464H240.737L241.121 36.656C240.433 36.688 239.785 36.824 239.177 37.064C238.585 37.288 237.993 37.576 237.401 37.928C236.825 38.264 236.201 38.616 235.529 38.984C234.873 39.352 234.129 39.696 233.297 40.016C232.465 40.336 231.505 40.6 230.417 40.808C229.329 41.016 228.065 41.12 226.625 41.12ZM233.417 46.52C232.953 46.52 232.553 46.36 232.217 46.04C231.897 45.72 231.737 45.328 231.737 44.864C231.737 44.4 231.897 43.992 232.217 43.64C232.553 43.304 232.953 43.136 233.417 43.136C233.881 43.136 234.273 43.304 234.593 43.64C234.929 43.992 235.097 44.4 235.097 44.864C235.097 45.328 234.929 45.72 234.593 46.04C234.273 46.36 233.881 46.52 233.417 46.52ZM242.328 41.12L242.568 37.76C243.096 37.76 243.528 37.72 243.864 37.64C244.2 37.544 244.472 37.344 244.68 37.04C244.904 36.72 245.096 36.248 245.256 35.624C245.432 34.984 245.624 34.12 245.832 33.032L248.952 33.608C248.888 33.96 248.8 34.4 248.688 34.928C248.592 35.456 248.544 35.912 248.544 36.296C248.544 36.6 248.6 36.864 248.712 37.088C248.84 37.296 249.048 37.464 249.336 37.592C249.64 37.704 250.056 37.76 250.584 37.76C251 37.76 251.352 37.72 251.64 37.64C251.944 37.544 252.2 37.344 252.408 37.04C252.632 36.72 252.824 36.232 252.984 35.576C253.16 34.904 253.328 34 253.488 32.864L256.656 33.368C256.592 33.736 256.528 34.128 256.464 34.544C256.4 34.96 256.344 35.344 256.296 35.696C256.248 36.048 256.224 36.336 256.224 36.56C256.224 36.768 256.28 36.968 256.392 37.16C256.52 37.336 256.744 37.48 257.064 37.592C257.4 37.704 257.864 37.76 258.456 37.76C259.176 37.76 259.704 37.608 260.04 37.304C260.392 36.984 260.568 36.504 260.568 35.864C260.568 35.496 260.56 35.104 260.544 34.688C260.528 34.256 260.496 33.776 260.448 33.248C260.416 32.704 260.352 32.088 260.256 31.4L263.352 31.16C263.464 32.536 263.592 33.656 263.736 34.52C263.88 35.384 264.072 36.056 264.312 36.536C264.568 37 264.904 37.32 265.32 37.496C265.752 37.672 266.312 37.76 267 37.76C267.608 37.76 268.04 37.92 268.296 38.24C268.568 38.544 268.704 38.928 268.704 39.392C268.704 39.888 268.536 40.304 268.2 40.64C267.88 40.96 267.4 41.12 266.76 41.12C266.328 41.12 265.88 41.08 265.416 41C264.952 40.936 264.504 40.8 264.072 40.592C263.64 40.368 263.256 40.048 262.92 39.632C262.584 39.216 262.32 38.664 262.128 37.976L262.56 38.12C262.336 38.92 262.032 39.536 261.648 39.968C261.264 40.4 260.792 40.704 260.232 40.88C259.672 41.04 259 41.12 258.216 41.12C257.496 41.12 256.856 41.024 256.296 40.832C255.736 40.64 255.288 40.328 254.952 39.896C254.632 39.448 254.464 38.848 254.448 38.096H255.264C254.944 38.992 254.576 39.656 254.16 40.088C253.744 40.52 253.24 40.8 252.648 40.928C252.056 41.056 251.312 41.12 250.416 41.12C249.872 41.12 249.336 41.064 248.808 40.952C248.28 40.824 247.808 40.544 247.392 40.112C246.976 39.664 246.672 38.96 246.48 38L247.776 37.952C247.44 38.896 247 39.592 246.456 40.04C245.928 40.488 245.32 40.784 244.632 40.928C243.944 41.056 243.176 41.12 242.328 41.12ZM266.773 41.12L267.013 37.76C267.973 37.76 268.709 37.712 269.221 37.616C269.733 37.52 270.085 37.344 270.277 37.088C270.485 36.816 270.589 36.432 270.589 35.936C270.589 35.488 270.525 34.952 270.397 34.328C270.285 33.704 270.133 33.056 269.941 32.384C269.765 31.712 269.573 31.096 269.365 30.536L272.677 29.624C272.885 30.168 273.085 30.8 273.277 31.52C273.469 32.24 273.629 32.984 273.757 33.752C273.885 34.504 273.949 35.232 273.949 35.936C273.949 37.024 273.773 37.912 273.421 38.6C273.069 39.272 272.573 39.792 271.933 40.16C271.309 40.528 270.557 40.784 269.677 40.928C268.797 41.056 267.829 41.12 266.773 41.12ZM273.277 27.68C272.813 27.68 272.413 27.52 272.077 27.2C271.757 26.864 271.597 26.472 271.597 26.024C271.597 25.56 271.757 25.16 272.077 24.824C272.413 24.488 272.813 24.32 273.277 24.32C273.725 24.32 274.109 24.488 274.429 24.824C274.749 25.16 274.909 25.56 274.909 26.024C274.909 26.472 274.749 26.864 274.429 27.2C274.109 27.52 273.725 27.68 273.277 27.68ZM269.125 27.656C268.661 27.656 268.261 27.496 267.925 27.176C267.605 26.84 267.445 26.448 267.445 26C267.445 25.536 267.605 25.136 267.925 24.8C268.261 24.464 268.661 24.296 269.125 24.296C269.573 24.296 269.957 24.464 270.277 24.8C270.597 25.136 270.757 25.536 270.757 26C270.757 26.448 270.597 26.84 270.277 27.176C269.957 27.496 269.573 27.656 269.125 27.656Z" fill="white"/>
<path d="M83.355 36.1406V35.7498L83.0291 35.9654C79.9076 38.0305 76.0842 38.105 72.968 36.1197L72.6451 35.914V36.2968V36.5993C72.6021 36.6093 72.5574 36.6196 72.511 36.6303C71.8318 36.7874 70.7839 37.0297 69.5201 37.5066L69.2009 37.627L69.4522 37.8578C71.4232 39.668 74.583 41.8143 78.2036 42.0533L78.2036 42.0537H78.2174C78.6378 42.0537 82.0896 41.5615 86.54 37.8647L86.8284 37.6251L86.4735 37.5043C85.1945 37.0688 84.0404 36.7676 83.355 36.6003V36.1406Z" fill="white" stroke="white" stroke-width="0.420058"/>
<path d="M57.79 56.2131L57.79 56.2131V56.2188C57.79 56.5112 57.886 56.7172 58.0634 56.9085C58.1475 56.9992 58.2406 57.077 58.3531 57.1308C58.4669 57.1854 58.5893 57.2101 58.7246 57.2101H77.2029H77.4096L77.4129 57.0034L77.6303 43.4096L77.6333 43.2231L77.4483 43.1981C73.4575 42.6603 70.2371 40.1207 68.287 38.3297L68.1818 38.2331L68.0533 38.2954C63.6444 40.4344 58.0823 45.4215 57.79 56.2131Z" fill="white" stroke="white" stroke-width="0.420058"/>
<path d="M88.0219 38.2968L87.8941 38.2325L87.7874 38.3279C83.5456 42.126 80.105 42.9709 78.8324 43.1996L78.6633 43.23L78.6596 43.4018L78.3697 56.9956L78.3652 57.2101H78.5797H97.2754C97.4107 57.2101 97.5331 57.1854 97.6469 57.1308C97.7594 57.077 97.8525 56.9992 97.9366 56.9085C98.114 56.7172 98.21 56.5112 98.21 56.2188H98.2101L98.21 56.2131C97.9177 45.4999 92.4286 40.5139 88.0219 38.2968ZM82.2103 54.3438V54.3599L82.2127 54.3759C82.263 54.701 82.0188 54.9931 81.6232 54.9931C81.319 54.9931 81.0361 54.7117 81.0361 54.3438C81.0361 53.9759 81.319 53.6944 81.6232 53.6944C81.9274 53.6944 82.2103 53.9759 82.2103 54.3438ZM82.2103 50.125V50.1412L82.2127 50.1571C82.263 50.4822 82.0188 50.7744 81.6232 50.7744C81.319 50.7744 81.0361 50.4929 81.0361 50.125C81.0361 49.7571 81.319 49.4757 81.6232 49.4757C81.9274 49.4757 82.2103 49.7571 82.2103 50.125ZM82.2103 45.9063V45.9224L82.2127 45.9384C82.263 46.2635 82.0188 46.5556 81.6232 46.5556C81.319 46.5556 81.0361 46.2742 81.0361 45.9063C81.0361 45.5384 81.319 45.2569 81.6232 45.2569C81.9274 45.2569 82.2103 45.5384 82.2103 45.9063Z" fill="white" stroke="white" stroke-width="0.420058"/>
<path d="M68.3385 21.7588C67.5943 21.6617 66.8759 21.8671 66.3737 22.4487C65.83 23.0782 65.5776 24.1054 65.7627 25.5425L65.7624 25.5425L65.7645 25.5539C66.0556 27.1232 67.2062 28.7475 68.8566 28.9891C70.4956 33.8997 74.1588 36.409 77.8636 36.419C81.5684 36.429 85.2493 33.9394 86.9243 28.9924C88.4884 28.8022 89.4873 27.4904 89.8868 26.0908C90.0937 25.3658 90.1467 24.5993 90.0323 23.9172C89.9183 23.237 89.6338 22.6213 89.1466 22.2273L89.1466 22.2273L89.1427 22.2242C88.6283 21.8281 88.0502 21.7263 87.3794 21.8315C87.3773 21.8221 87.3752 21.813 87.3731 21.8043L87.3713 21.7963C87.3533 21.7187 87.3419 21.6661 87.3406 21.6186C87.9944 15.0925 86.2442 11.4455 84.6852 9.52431C83.2753 7.76458 81.4069 6.78997 79.4493 6.78997H76.1884C73.5757 6.78997 71.6522 8.56958 70.4384 11.0382C69.2298 13.496 68.6996 16.6781 68.8747 19.625C68.6131 20.3425 68.4694 21.058 68.3385 21.7588ZM69.8767 24.4273C69.9464 23.0812 70.1502 21.8138 70.5502 20.6221C71.884 20.3771 74.7551 19.7553 76.7653 18.1342C78.0266 19.2038 81.0709 21.3346 85.6465 22.4084C85.7709 23.0616 85.8335 23.7754 85.8335 24.4219C85.8335 30.0561 82.1898 34.5243 77.8551 34.5243C73.5218 34.5243 69.879 30.059 69.8767 24.4273Z" fill="white" stroke="white" stroke-width="0.420058"/>
</svg>
