<svg xmlns="http://www.w3.org/2000/svg" version="1.1" xmlns:xlink="http://www.w3.org/1999/xlink" xmlns:svgjs="http://svgjs.dev/svgjs" width="1500" height="939" viewBox="0 0 1500 939"><g transform="matrix(1,0,0,1,-0.9090909090909918,71.76674657869023)"><svg viewBox="0 0 396 248" data-background-color="#ffffff" preserveAspectRatio="xMidYMid meet" height="939" width="1500" xmlns="http://www.w3.org/2000/svg" xmlns:xlink="http://www.w3.org/1999/xlink"><g id="tight-bounds" transform="matrix(1,0,0,1,0.2400000000000091,0.4000000000000057)"><svg viewBox="0 0 395.52 247.2" height="247.2" width="395.52"><g><svg></svg></g><g><svg viewBox="0 0 395.52 247.2" height="247.2" width="395.52"><g transform="matrix(1,0,0,1,75.54432,105.39420242431265)"><svg viewBox="0 0 244.43135999999998 36.4115951513747" height="36.4115951513747" width="244.43135999999998"><g><svg viewBox="0 0 244.43135999999998 36.4115951513747" height="36.4115951513747" width="244.43135999999998"><g><svg viewBox="0 0 244.43135999999998 36.4115951513747" height="36.4115951513747" width="244.43135999999998"><g><svg viewBox="0 0 244.43135999999998 36.4115951513747" height="36.4115951513747" width="244.43135999999998"><g id="textblocktransform"><svg viewBox="0 0 244.43135999999998 36.4115951513747" height="36.4115951513747" width="244.43135999999998" id="textblock"><g><svg viewBox="0 0 244.43135999999998 19.63867454806313" height="19.63867454806313" width="244.43135999999998"><g transform="matrix(1,0,0,1,0,0)"><svg width="244.43135999999998" viewBox="5.75 -35.7 453.02 36.400000000000006" height="19.63867454806313" data-palette-color="#000000"><path d="M35.85-35L39.45-35 39.45 0 36.05 0 36.05-32.1 35.75-32.1 23.65-8.9 22.1-8.9 8.35-29.35 8.05-29.35 9.15 0 5.75 0 7-35.7 8-35.7 23.75-12.3 24.05-12.3 35.85-35ZM67.85 0L52.45 0 52.45-35 67.7-35 67.7-32.55 58.95-33.7Q56.65-34 55.85-34L55.85-34 55.85-18.75Q56.5-18.75 58.95-18.9L58.95-18.9 67.15-19.4 67.15-17.1 58.95-17.6Q56.5-17.75 55.85-17.75L55.85-17.75 55.85-1Q56.75-1 59-1.3L59-1.3 67.85-2.45 67.85 0ZM78.35 0L78.35-35 85.05-35Q90.35-35 93.27-32.77 96.2-30.55 96.2-26.55L96.2-26.55Q96.2-23.45 94.37-21.4 92.55-19.35 89.1-18.65L89.1-18.65 89.1-18.35Q92.4-17.7 94.5-15.25 96.6-12.8 97.65-9.2L97.65-9.2Q98.6-5.9 99.52-4.08 100.45-2.25 101.57-1.45 102.7-0.65 104.25-0.3L104.25-0.3 104.25 0 102.2 0Q100 0 98.57-0.8 97.15-1.6 96.15-3.5 95.15-5.4 94.25-8.75L94.25-8.75Q92.8-13.9 90.4-16.05 88-18.2 84.55-18.2L84.55-18.2 84.25-18.2 84.25-19.1 84.55-19.1Q92.6-19.1 92.6-26.5L92.6-26.5Q92.6-33.8 85.05-33.8L85.05-33.8 81.75-33.8 81.75 0 78.35 0ZM113.84 0L110.44 0 110.44-35 113.84-35 113.84 0ZM142.24 0L126.84 0 126.84-35 142.09-35 142.09-32.55 133.34-33.7Q131.04-34 130.24-34L130.24-34 130.24-18.75Q130.89-18.75 133.34-18.9L133.34-18.9 141.54-19.4 141.54-17.1 133.34-17.6Q130.89-17.75 130.24-17.75L130.24-17.75 130.24-1Q131.14-1 133.39-1.3L133.39-1.3 142.24-2.45 142.24 0ZM182.09-35L185.69-35 185.69 0 182.29 0 182.29-32.1 181.99-32.1 169.89-8.9 168.34-8.9 154.59-29.35 154.29-29.35 155.39 0 151.99 0 153.24-35.7 154.24-35.7 169.99-12.3 170.29-12.3 182.09-35ZM210.63 0L206.98 0 220.43-35 223.53-35 236.98 0 233.33 0 227.13-16.4 215.78-16.4 210.63 0ZM221.08-32.4L220.78-32.4 216.13-17.6 226.68-17.6 221.08-32.4ZM245.08 0L245.08-35 248.48-35 248.48-1Q249.43-1 251.48-1.3L251.48-1.3 259.78-2.55 259.78 0 245.08 0ZM276.23 0L268.13 0 268.13-35 275.08-35Q280.48-35 283.48-32.75 286.48-30.5 286.48-26.5L286.48-26.5Q286.48-23.55 284.73-21.48 282.98-19.4 279.83-18.65L279.83-18.65 279.83-18.35Q284.13-17.8 286.55-15.38 288.98-12.95 288.98-9.25L288.98-9.25Q288.98-4.9 285.63-2.45 282.28 0 276.23 0L276.23 0ZM275.13-33.8L275.13-33.8 271.53-33.8 271.53-18.8 275.08-18.8Q282.98-18.8 282.98-26.3L282.98-26.3Q282.98-33.8 275.13-33.8ZM276.23-17.6L276.23-17.6 271.53-17.6 271.53-1.2 276.23-1.2Q285.38-1.2 285.38-9.4L285.38-9.4Q285.38-17.6 276.23-17.6ZM297.43 0L293.78 0 307.23-35 310.33-35 323.78 0 320.13 0 313.93-16.4 302.58-16.4 297.43 0ZM307.88-32.4L307.58-32.4 302.93-17.6 313.48-17.6 307.88-32.4ZM340.27 0L336.87 0 336.87-34Q336.12-34 333.77-33.7L333.77-33.7 323.97-32.45 323.97-35 353.17-35 353.17-32.45 343.37-33.7Q341.02-34 340.27-34L340.27-34 340.27 0ZM357.27-17.5L357.27-17.5Q357.27-21.35 358.65-24.68 360.02-28 362.5-30.48 364.97-32.95 368.3-34.33 371.62-35.7 375.47-35.7L375.47-35.7Q379.32-35.7 382.65-34.33 385.97-32.95 388.45-30.48 390.92-28 392.3-24.68 393.67-21.35 393.67-17.5L393.67-17.5Q393.67-13.65 392.3-10.33 390.92-7 388.45-4.53 385.97-2.05 382.65-0.68 379.32 0.7 375.47 0.7L375.47 0.7Q371.62 0.7 368.3-0.68 364.97-2.05 362.5-4.53 360.02-7 358.65-10.33 357.27-13.65 357.27-17.5ZM361.07-17.5L361.07-17.5Q361.07-12.4 362.87-8.58 364.67-4.75 367.92-2.63 371.17-0.5 375.47-0.5L375.47-0.5Q379.77-0.5 383.02-2.63 386.27-4.75 388.07-8.6 389.87-12.45 389.87-17.5L389.87-17.5Q389.87-22.55 388.07-26.38 386.27-30.2 383.02-32.35 379.77-34.5 375.47-34.5L375.47-34.5Q371.17-34.5 367.95-32.38 364.72-30.25 362.9-26.43 361.07-22.6 361.07-17.5ZM403.67-14L403.67-35 407.07-35 407.07-13.9Q407.07-7.85 410.04-4.48 413.02-1.1 418.42-1.1L418.42-1.1Q421.82-1.1 424.34-2.43 426.87-3.75 428.24-6.1 429.62-8.45 429.52-11.5L429.52-11.5 428.67-35 432.07-35 431.22-11.5Q431.02-5.5 427.64-2.4 424.27 0.7 418.02 0.7L418.02 0.7Q411.27 0.7 407.47-3.23 403.67-7.15 403.67-14L403.67-14ZM444.07 0L444.07-35 447.47-35 447.47-1Q448.42-1 450.47-1.3L450.47-1.3 458.77-2.55 458.77 0 444.07 0Z" opacity="1" transform="matrix(1,0,0,1,0,0)" fill="#000000" class="wordmark-text-0" data-fill-palette-color="primary" id="text-0"></path></svg></g></svg></g><g transform="matrix(1,0,0,1,0,24.27489428067168)"><svg viewBox="0 0 244.43135999999998 12.136700870703013" height="12.136700870703013" width="244.43135999999998"><g transform="matrix(1,0,0,1,0,0)"><svg width="244.43135999999998" viewBox="0.6 -35 717.99 35.65" height="12.136700870703013" data-palette-color="#89939e"><path d="M22.85 0L18.85-12.25 7.45-12.25 3.55 0 0.6 0 11.8-35 14.45-35 25.85 0 22.85 0ZM13.1-30.65L8.25-15 18.1-15 13.1-30.65ZM111.76 0L111.76-35 114.56-35 114.56 0 111.76 0ZM222.41-7.85Q222.41-5.3 221.36-3.55 220.31-1.8 218.51-0.9L218.51-0.9Q216.91-0.1 215.29 0.25 213.66 0.6 211.81 0.6L211.81 0.6Q209.96 0.6 206.71 0.25L206.71 0.25 203.96 0 203.96-35 206.76-35 206.76-23.7Q207.96-24.55 209.69-25 211.41-25.45 213.26-25.45L213.26-25.45Q216.11-25.45 218.16-24.5L218.16-24.5Q222.41-22.55 222.41-17.3L222.41-17.3 222.41-7.85ZM219.66-17.15Q219.66-20.2 217.89-21.58 216.11-22.95 213.31-22.95L213.31-22.95Q211.61-22.95 209.86-22.48 208.11-22 206.76-21.25L206.76-21.25 206.76-2.4Q209.71-1.95 211.61-1.95L211.61-1.95Q219.66-1.95 219.66-7.8L219.66-7.8 219.66-17.15ZM326.67 0Q321.27 0.55 318.87 0.55L318.87 0.55Q313.62 0.55 310.52-1.4 307.42-3.35 307.42-8.45L307.42-8.45 307.42-12.6Q307.42-17.55 310.87-19.25L310.87-19.25Q312.52-20.1 315.07-20.1L315.07-20.1Q317.42-20.1 319.82-19.33 322.22-18.55 323.87-17.3L323.87-17.3Q323.87-20.05 322.27-21.68 320.67-23.3 316.12-23.3L316.12-23.3 316.27-25.45Q321.07-25.45 323.34-23.93 325.62-22.4 326.14-20.3 326.67-18.2 326.67-14.9L326.67-14.9 326.67 0ZM323.87-15.15Q321.82-16.1 319.49-16.8 317.17-17.5 315.22-17.5L315.22-17.5Q310.17-17.5 310.17-12.45L310.17-12.45 310.17-8.1Q310.17-4.85 312.42-3.38 314.67-1.9 318.82-1.9L318.82-1.9Q320.97-1.9 323.87-2.3L323.87-2.3 323.87-15.15ZM416.17 0.65Q413.37-0.15 412.12-1.9 410.87-3.65 410.87-6.6L410.87-6.6 410.87-35 413.67-35 413.67-25.05 419.67-25.05 418.47-22.4 413.67-22.4 413.67-6.6Q413.67-2.6 416.97-1.5L416.97-1.5 416.17 0.65ZM524.88-9.2Q524.88-5 522.58-2.25 520.28 0.5 515.63 0.5L515.63 0.5Q510.98 0.5 508.6-2.27 506.23-5.05 506.23-9.2L506.23-9.2 506.23-15.8Q506.23-20.55 508.65-23.08 511.08-25.6 515.63-25.6L515.63-25.6Q519.98-25.6 522.43-22.98 524.88-20.35 524.88-15.8L524.88-15.8 524.88-9.2ZM522.08-15.8Q522.08-19.55 520.35-21.3 518.63-23.05 515.63-23.05L515.63-23.05Q512.53-23.05 510.78-21.3 509.03-19.55 509.03-15.8L509.03-15.8 509.03-8.7Q509.03-5.7 510.8-3.85 512.58-2 515.63-2L515.63-2Q518.73-2 520.4-3.83 522.08-5.65 522.08-8.7L522.08-8.7 522.08-15.8ZM625.73 0L625.93-2.55Q624.73-1.05 622.91-0.25 621.08 0.55 619.23 0.55L619.23 0.55Q609.83 0.55 609.83-8.6L609.83-8.6 609.83-25.05 612.63-25.05 612.63-8.25Q612.63-5.05 614.41-3.5 616.18-1.95 619.23-1.95L619.23-1.95Q622.23-1.95 623.96-3.48 625.68-5 625.68-8.25L625.68-8.25 625.68-25.05 628.48-25.05 628.48 0 625.73 0ZM715.79 0L715.79-35 718.59-35 718.59 0 715.79 0Z" opacity="1" transform="matrix(1,0,0,1,0,0)" fill="#89939e" class="slogan-text-1" data-fill-palette-color="secondary" id="text-1"></path></svg></g></svg></g></svg></g></svg></g><g></g></svg></g></svg></g></svg></g><g><path d="M77.698 100.758A122.216 122.216 0 0 1 317.822 100.758L316.051 100.758A120.445 120.445 0 0 0 79.469 100.758L77.698 100.758M77.698 146.442A122.216 122.216 0 0 0 317.822 146.442L316.051 146.442A120.445 120.445 0 0 1 79.469 146.442L77.698 146.442" fill="#000000" stroke="transparent" data-fill-palette-color="tertiary"></path></g></svg></g><defs></defs></svg><rect width="395.52" height="247.2" fill="none" stroke="none" visibility="hidden"></rect></g></svg></g></svg>