<svg width="258" height="40" viewBox="0 0 258 40" fill="none" xmlns="http://www.w3.org/2000/svg">
<path d="M0.624 28.328C0.624 27.96 0.656 27.528 0.72 27.032C0.784 26.536 0.904 25.976 1.08 25.352C1.256 24.712 1.52 24 1.872 23.216L4.824 24.248C4.648 24.744 4.496 25.2 4.368 25.616C4.24 26.016 4.144 26.392 4.08 26.744C4.016 27.08 3.984 27.416 3.984 27.752C3.984 28.568 4.16 29.24 4.512 29.768C4.88 30.296 5.392 30.688 6.048 30.944C6.704 31.2 7.464 31.328 8.328 31.328C9.48 31.328 10.392 31.136 11.064 30.752C11.736 30.368 12.224 29.832 12.528 29.144C12.832 28.472 13.016 27.688 13.08 26.792C13.16 25.88 13.184 24.912 13.152 23.888L12.696 11.432H16.08L16.488 23.672C16.52 24.712 16.48 25.752 16.368 26.792C16.272 27.832 16.056 28.816 15.72 29.744C15.4 30.672 14.928 31.496 14.304 32.216C13.68 32.936 12.872 33.504 11.88 33.92C10.904 34.336 9.696 34.544 8.256 34.544C7.216 34.544 6.232 34.424 5.304 34.184C4.392 33.944 3.584 33.568 2.88 33.056C2.176 32.56 1.624 31.92 1.224 31.136C0.824 30.352 0.624 29.416 0.624 28.328ZM19.1571 34.52L18.4611 31.16C19.5971 31.016 20.5891 30.84 21.4371 30.632C22.2851 30.44 22.9971 30.168 23.5731 29.816C24.1491 29.464 24.5811 28.984 24.8691 28.376C25.1571 27.752 25.3011 26.952 25.3011 25.976C25.3011 25.032 25.1571 24.28 24.8691 23.72C24.5811 23.16 24.1971 22.88 23.7171 22.88C23.3811 22.88 23.1011 23 22.8771 23.24C22.6531 23.464 22.4851 23.736 22.3731 24.056C22.2771 24.36 22.2291 24.632 22.2291 24.872C22.2291 25.016 22.2691 25.168 22.3491 25.328C22.4291 25.488 22.6051 25.624 22.8771 25.736C23.1491 25.848 23.5731 25.912 24.1491 25.928C24.7411 25.944 25.5411 25.888 26.5491 25.76H30.5811C31.1891 25.76 31.6211 25.92 31.8771 26.24C32.1491 26.544 32.2851 26.928 32.2851 27.392C32.2851 27.888 32.1171 28.304 31.7811 28.64C31.4451 28.96 30.9651 29.12 30.3411 29.12H23.7411C22.7331 29.12 21.8691 29 21.1491 28.76C20.4291 28.52 19.8771 28.136 19.4931 27.608C19.1091 27.064 18.9171 26.344 18.9171 25.448C18.9171 24.728 19.0371 24.008 19.2771 23.288C19.5331 22.568 19.8851 21.912 20.3331 21.32C20.7811 20.712 21.3011 20.232 21.8931 19.88C22.5011 19.512 23.1571 19.328 23.8611 19.328C24.8211 19.328 25.6611 19.624 26.3811 20.216C27.1011 20.808 27.6611 21.592 28.0611 22.568C28.4771 23.544 28.6851 24.608 28.6851 25.76C28.6851 27.568 28.3011 29.104 27.5331 30.368C26.7651 31.632 25.6691 32.608 24.2451 33.296C22.8211 34 21.1251 34.408 19.1571 34.52ZM30.375 29.12L30.615 25.76C31.191 25.76 31.687 25.704 32.103 25.592C32.519 25.48 32.871 25.256 33.159 24.92C33.447 24.568 33.687 24.056 33.879 23.384C34.087 22.712 34.271 21.816 34.431 20.696L37.575 21.224C37.543 21.464 37.495 21.744 37.431 22.064C37.383 22.384 37.335 22.712 37.287 23.048C37.255 23.368 37.239 23.672 37.239 23.96C37.239 24.248 37.295 24.504 37.407 24.728C37.519 24.952 37.695 25.144 37.935 25.304C38.191 25.448 38.519 25.56 38.919 25.64C39.335 25.72 39.839 25.76 40.431 25.76C41.039 25.76 41.471 25.92 41.727 26.24C41.983 26.544 42.111 26.928 42.111 27.392C42.111 27.888 41.943 28.304 41.607 28.64C41.287 28.96 40.815 29.12 40.191 29.12C39.471 29.12 38.815 29.064 38.223 28.952C37.647 28.84 37.143 28.656 36.711 28.4C36.295 28.128 35.951 27.776 35.679 27.344C35.423 26.896 35.263 26.352 35.199 25.712H36.351C36.063 26.48 35.695 27.096 35.247 27.56C34.815 28.008 34.327 28.344 33.783 28.568C33.239 28.792 32.671 28.936 32.079 29C31.503 29.08 30.935 29.12 30.375 29.12ZM38.079 18.536C37.615 18.536 37.215 18.376 36.879 18.056C36.559 17.72 36.399 17.328 36.399 16.88C36.399 16.416 36.559 16.016 36.879 15.68C37.215 15.344 37.615 15.176 38.079 15.176C38.527 15.176 38.911 15.344 39.231 15.68C39.551 16.016 39.711 16.416 39.711 16.88C39.711 17.328 39.551 17.72 39.231 18.056C38.911 18.376 38.527 18.536 38.079 18.536ZM33.927 18.512C33.463 18.512 33.063 18.352 32.727 18.032C32.407 17.696 32.247 17.304 32.247 16.856C32.247 16.392 32.407 15.992 32.727 15.656C33.063 15.32 33.463 15.152 33.927 15.152C34.375 15.152 34.759 15.32 35.079 15.656C35.399 15.992 35.559 16.392 35.559 16.856C35.559 17.304 35.399 17.696 35.079 18.032C34.759 18.352 34.375 18.512 33.927 18.512ZM40.1953 29.12L40.4353 25.76C41.0433 25.76 41.5233 25.704 41.8753 25.592C42.2433 25.48 42.5313 25.256 42.7393 24.92C42.9633 24.568 43.1473 24.056 43.2913 23.384C43.4513 22.712 43.6113 21.816 43.7713 20.696L46.9153 21.224C46.8833 21.464 46.8353 21.744 46.7713 22.064C46.7233 22.384 46.6753 22.712 46.6273 23.048C46.5953 23.368 46.5793 23.672 46.5793 23.96C46.5793 24.344 46.6593 24.672 46.8193 24.944C46.9953 25.2 47.2993 25.4 47.7313 25.544C48.1793 25.688 48.8193 25.76 49.6513 25.76C50.2593 25.76 50.6913 25.92 50.9473 26.24C51.2033 26.544 51.3313 26.928 51.3313 27.392C51.3313 27.888 51.1633 28.304 50.8273 28.64C50.5073 28.96 50.0353 29.12 49.4113 29.12C48.3073 29.12 47.4113 29.016 46.7233 28.808C46.0353 28.6 45.5233 28.248 45.1873 27.752C44.8513 27.256 44.6353 26.576 44.5393 25.712H45.6913C45.4033 26.48 45.0673 27.096 44.6833 27.56C44.2993 28.008 43.8673 28.344 43.3873 28.568C42.9073 28.792 42.3953 28.936 41.8513 29C41.3233 29.08 40.7713 29.12 40.1953 29.12ZM44.4673 34.64C44.0033 34.64 43.6033 34.48 43.2673 34.16C42.9473 33.84 42.7873 33.448 42.7873 32.984C42.7873 32.52 42.9473 32.112 43.2673 31.76C43.6033 31.424 44.0033 31.256 44.4673 31.256C44.9313 31.256 45.3233 31.424 45.6433 31.76C45.9793 32.112 46.1473 32.52 46.1473 32.984C46.1473 33.448 45.9793 33.84 45.6433 34.16C45.3233 34.48 44.9313 34.64 44.4673 34.64ZM49.4062 29.12L49.6463 25.76C50.3823 25.76 50.9103 25.688 51.2303 25.544C51.5503 25.384 51.7423 25.096 51.8063 24.68C51.8703 24.248 51.8863 23.624 51.8543 22.808L51.4223 11.432H54.8063L55.2863 23.048C55.3183 23.976 55.2783 24.816 55.1663 25.568C55.0703 26.304 54.8223 26.936 54.4223 27.464C54.0383 27.992 53.4383 28.4 52.6223 28.688C51.8223 28.976 50.7503 29.12 49.4062 29.12ZM58.4513 29L57.9473 11.432H61.3073L61.8113 29H58.4513ZM71.0149 38.432C70.6469 37.12 70.3429 35.872 70.1029 34.688C69.8629 33.52 69.6869 32.456 69.5749 31.496C69.4629 30.552 69.4069 29.76 69.4069 29.12C69.4069 27.696 69.6309 26.432 70.0789 25.328C70.5429 24.208 71.1349 23.248 71.8549 22.448C72.5909 21.632 73.3749 20.96 74.2069 20.432C75.0549 19.904 75.8709 19.512 76.6549 19.256C77.4549 19 78.1349 18.872 78.6949 18.872C79.2709 18.872 79.7429 19.024 80.1109 19.328C80.4949 19.632 80.8309 20.072 81.1189 20.648C81.4229 21.208 81.7429 21.888 82.0789 22.688C82.4629 23.552 82.7989 24.208 83.0869 24.656C83.3909 25.088 83.7029 25.384 84.0229 25.544C84.3429 25.688 84.7029 25.76 85.1029 25.76C85.7109 25.76 86.1509 25.92 86.4229 26.24C86.6949 26.544 86.8309 26.928 86.8309 27.392C86.8309 27.888 86.6629 28.304 86.3269 28.64C85.9909 28.96 85.5029 29.12 84.8629 29.12C84.0789 29.12 83.3989 28.992 82.8229 28.736C82.2469 28.464 81.7269 28.08 81.2629 27.584L81.9349 26.84C81.7909 27.336 81.5909 27.784 81.3349 28.184C81.0949 28.568 80.7669 28.872 80.3509 29.096C79.9509 29.32 79.4469 29.432 78.8389 29.432C78.2949 29.432 77.7509 29.352 77.2069 29.192C76.6789 29.032 76.1589 28.792 75.6469 28.472C75.1509 28.152 74.6709 27.76 74.2069 27.296C73.7429 26.816 73.3029 26.264 72.8869 25.64L73.7749 25.472C73.4229 26.016 73.1669 26.624 73.0069 27.296C72.8469 27.968 72.7669 28.632 72.7669 29.288C72.7669 29.8 72.8069 30.392 72.8869 31.064C72.9829 31.752 73.1029 32.472 73.2469 33.224C73.3909 33.992 73.5509 34.744 73.7269 35.48C73.9189 36.232 74.1029 36.92 74.2789 37.544L71.0149 38.432ZM78.7909 26.048C79.0949 26.048 79.3349 26.008 79.5109 25.928C79.7029 25.832 79.8229 25.696 79.8709 25.52C79.9349 25.344 79.9189 25.136 79.8229 24.896C79.6629 24.464 79.5029 24.088 79.3429 23.768C79.1989 23.448 79.0549 23.176 78.9109 22.952C78.7829 22.728 78.6469 22.56 78.5029 22.448C78.3749 22.336 78.2389 22.28 78.0949 22.28C77.8869 22.28 77.6309 22.352 77.3269 22.496C77.0229 22.624 76.7189 22.784 76.4149 22.976C76.1109 23.168 75.8549 23.36 75.6469 23.552C75.4389 23.728 75.3189 23.864 75.2869 23.96L74.9989 23.168C75.2869 23.728 75.6309 24.232 76.0309 24.68C76.4469 25.112 76.8949 25.448 77.3749 25.688C77.8549 25.928 78.3269 26.048 78.7909 26.048ZM84.9141 29.12L85.1541 25.76C86.1141 25.76 86.8501 25.712 87.3621 25.616C87.8741 25.52 88.2261 25.344 88.4181 25.088C88.6261 24.816 88.7301 24.432 88.7301 23.936C88.7301 23.488 88.6661 22.952 88.5381 22.328C88.4261 21.704 88.2741 21.056 88.0821 20.384C87.9061 19.712 87.7141 19.096 87.5061 18.536L90.8181 17.624C91.0261 18.168 91.2261 18.8 91.4181 19.52C91.6101 20.24 91.7701 20.984 91.8981 21.752C92.0261 22.504 92.0901 23.232 92.0901 23.936C92.0901 25.024 91.9141 25.912 91.5621 26.6C91.2101 27.272 90.7141 27.792 90.0741 28.16C89.4501 28.528 88.6981 28.784 87.8181 28.928C86.9381 29.056 85.9701 29.12 84.9141 29.12ZM90.8421 34.688C90.3781 34.688 89.9781 34.52 89.6421 34.184C89.3221 33.864 89.1621 33.48 89.1621 33.032C89.1621 32.568 89.3221 32.168 89.6421 31.832C89.9781 31.496 90.3781 31.328 90.8421 31.328C91.2901 31.328 91.6741 31.496 91.9941 31.832C92.3141 32.168 92.4741 32.568 92.4741 33.032C92.4741 33.48 92.3141 33.864 91.9941 34.184C91.6741 34.52 91.2901 34.688 90.8421 34.688ZM86.6901 34.688C86.2261 34.688 85.8261 34.52 85.4901 34.184C85.1701 33.864 85.0101 33.48 85.0101 33.032C85.0101 32.568 85.1701 32.168 85.4901 31.832C85.8261 31.496 86.2261 31.328 86.6901 31.328C87.1381 31.328 87.5221 31.496 87.8421 31.832C88.1621 32.168 88.3221 32.568 88.3221 33.032C88.3221 33.48 88.1621 33.864 87.8421 34.184C87.5221 34.52 87.1381 34.688 86.6901 34.688ZM93.9231 34.544L92.6991 31.568C93.5471 31.28 94.3231 30.944 95.0271 30.56C95.7471 30.176 96.3711 29.752 96.8991 29.288C97.4271 28.824 97.8351 28.32 98.1231 27.776C98.4111 27.216 98.5551 26.616 98.5551 25.976C98.5551 25.304 98.4031 24.568 98.0991 23.768C97.7951 22.968 97.4271 22.152 96.9951 21.32L100.139 19.808C100.427 20.304 100.675 20.84 100.883 21.416C101.107 21.976 101.291 22.48 101.435 22.928C101.579 23.376 101.675 23.68 101.723 23.84C101.947 24.608 102.251 25.12 102.635 25.376C103.035 25.632 103.675 25.76 104.555 25.76C105.163 25.76 105.595 25.92 105.851 26.24C106.123 26.544 106.259 26.928 106.259 27.392C106.259 27.888 106.091 28.304 105.755 28.64C105.419 28.96 104.939 29.12 104.315 29.12C103.659 29.12 103.083 29.024 102.587 28.832C102.091 28.64 101.691 28.36 101.387 27.992C101.099 27.624 100.915 27.192 100.835 26.696L101.723 27.2C101.627 28.048 101.347 28.848 100.883 29.6C100.435 30.368 99.8511 31.072 99.1311 31.712C98.4111 32.352 97.6031 32.912 96.7071 33.392C95.8111 33.872 94.8831 34.256 93.9231 34.544ZM104.344 29.12L104.584 25.76C104.952 25.76 105.264 25.672 105.52 25.496C105.792 25.304 106.072 24.992 106.36 24.56C106.648 24.112 106.984 23.512 107.368 22.76C107.848 21.8 108.344 21.048 108.856 20.504C109.384 19.96 109.92 19.576 110.464 19.352C111.024 19.112 111.584 18.992 112.144 18.992C112.848 18.992 113.504 19.144 114.112 19.448C114.72 19.752 115.248 20.168 115.696 20.696C116.144 21.208 116.488 21.8 116.728 22.472C116.984 23.128 117.112 23.808 117.112 24.512C117.112 25.36 116.928 26.128 116.56 26.816C116.208 27.488 115.712 28.024 115.072 28.424C114.448 28.808 113.728 29 112.912 29C112.224 29 111.424 28.88 110.512 28.64C109.6 28.4 108.64 27.896 107.632 27.128L108.856 24.224C109.576 24.72 110.248 25.08 110.872 25.304C111.512 25.528 112.04 25.64 112.456 25.64C112.776 25.64 113.04 25.608 113.248 25.544C113.456 25.48 113.608 25.376 113.704 25.232C113.8 25.088 113.848 24.896 113.848 24.656C113.848 24.32 113.768 23.976 113.608 23.624C113.448 23.272 113.232 22.976 112.96 22.736C112.704 22.48 112.4 22.352 112.048 22.352C111.712 22.352 111.424 22.48 111.184 22.736C110.96 22.976 110.736 23.328 110.512 23.792C110.304 24.24 110.048 24.768 109.744 25.376C109.376 26.112 109.016 26.728 108.664 27.224C108.312 27.704 107.936 28.088 107.536 28.376C107.152 28.648 106.696 28.84 106.168 28.952C105.656 29.064 105.048 29.12 104.344 29.12ZM137.61 29.12C136.474 29.12 135.49 28.976 134.658 28.688C133.842 28.384 133.21 27.904 132.762 27.248C132.314 26.576 132.058 25.68 131.994 24.56L131.562 14.888H134.946L135.354 23.384C135.386 24.04 135.49 24.544 135.666 24.896C135.858 25.232 136.13 25.464 136.482 25.592C136.834 25.704 137.29 25.76 137.85 25.76C138.458 25.76 138.89 25.92 139.146 26.24C139.402 26.544 139.53 26.928 139.53 27.392C139.53 27.888 139.362 28.304 139.026 28.64C138.706 28.96 138.234 29.12 137.61 29.12ZM133.218 26.888C132.146 27.128 131.114 27.24 130.122 27.224C129.13 27.192 128.242 27.016 127.458 26.696C126.674 26.36 126.05 25.88 125.586 25.256C125.138 24.632 124.914 23.84 124.914 22.88C124.914 22.032 125.098 21.264 125.466 20.576C125.85 19.872 126.378 19.256 127.05 18.728C127.738 18.2 128.538 17.752 129.45 17.384C130.362 17.016 131.354 16.736 132.426 16.544L132.762 19.952C132.074 19.984 131.45 20.08 130.89 20.24C130.346 20.384 129.874 20.576 129.474 20.816C129.09 21.056 128.794 21.328 128.586 21.632C128.378 21.92 128.274 22.232 128.274 22.568C128.274 22.84 128.37 23.064 128.562 23.24C128.754 23.416 129.01 23.56 129.33 23.672C129.65 23.768 130.018 23.824 130.434 23.84C130.85 23.856 131.274 23.832 131.706 23.768C132.154 23.704 132.594 23.6 133.026 23.456L133.218 26.888ZM133.29 12.416C132.826 12.416 132.426 12.256 132.09 11.936C131.77 11.6 131.61 11.208 131.61 10.76C131.61 10.296 131.77 9.896 132.09 9.56C132.426 9.224 132.826 9.056 133.29 9.056C133.738 9.056 134.122 9.224 134.442 9.56C134.762 9.896 134.922 10.296 134.922 10.76C134.922 11.208 134.762 11.6 134.442 11.936C134.122 12.256 133.738 12.416 133.29 12.416ZM129.138 12.392C128.674 12.392 128.274 12.232 127.938 11.912C127.618 11.576 127.458 11.184 127.458 10.736C127.458 10.272 127.618 9.872 127.938 9.536C128.274 9.2 128.674 9.032 129.138 9.032C129.586 9.032 129.97 9.2 130.29 9.536C130.61 9.872 130.77 10.272 130.77 10.736C130.77 11.184 130.61 11.576 130.29 11.912C129.97 12.232 129.586 12.392 129.138 12.392ZM137.602 29.12L137.842 25.76C138.418 25.76 138.914 25.704 139.33 25.592C139.746 25.48 140.098 25.256 140.386 24.92C140.674 24.568 140.914 24.056 141.106 23.384C141.314 22.712 141.498 21.816 141.658 20.696L144.802 21.224C144.77 21.464 144.722 21.744 144.658 22.064C144.61 22.384 144.562 22.712 144.514 23.048C144.482 23.368 144.466 23.672 144.466 23.96C144.466 24.248 144.522 24.504 144.634 24.728C144.746 24.952 144.922 25.144 145.162 25.304C145.418 25.448 145.746 25.56 146.146 25.64C146.562 25.72 147.066 25.76 147.658 25.76C148.266 25.76 148.698 25.92 148.954 26.24C149.21 26.544 149.338 26.928 149.338 27.392C149.338 27.888 149.17 28.304 148.834 28.64C148.514 28.96 148.042 29.12 147.418 29.12C146.698 29.12 146.042 29.064 145.45 28.952C144.874 28.84 144.37 28.656 143.938 28.4C143.522 28.128 143.178 27.776 142.906 27.344C142.65 26.896 142.49 26.352 142.426 25.712H143.578C143.29 26.48 142.922 27.096 142.474 27.56C142.042 28.008 141.554 28.344 141.01 28.568C140.466 28.792 139.898 28.936 139.306 29C138.73 29.08 138.162 29.12 137.602 29.12ZM144.298 34.688C143.834 34.688 143.434 34.52 143.098 34.184C142.778 33.864 142.618 33.48 142.618 33.032C142.618 32.568 142.778 32.168 143.098 31.832C143.434 31.496 143.834 31.328 144.298 31.328C144.746 31.328 145.13 31.496 145.45 31.832C145.77 32.168 145.93 32.568 145.93 33.032C145.93 33.48 145.77 33.864 145.45 34.184C145.13 34.52 144.746 34.688 144.298 34.688ZM140.146 34.688C139.682 34.688 139.282 34.52 138.946 34.184C138.626 33.864 138.466 33.48 138.466 33.032C138.466 32.568 138.626 32.168 138.946 31.832C139.282 31.496 139.682 31.328 140.146 31.328C140.594 31.328 140.978 31.496 141.298 31.832C141.618 32.168 141.778 32.568 141.778 33.032C141.778 33.48 141.618 33.864 141.298 34.184C140.978 34.52 140.594 34.688 140.146 34.688ZM147.422 29.12L147.662 25.76C148.062 25.76 148.366 25.68 148.574 25.52C148.782 25.36 148.99 25.08 149.198 24.68C149.406 24.28 149.694 23.736 150.062 23.048C150.462 22.28 150.878 21.64 151.31 21.128C151.742 20.6 152.174 20.184 152.606 19.88C153.054 19.56 153.494 19.336 153.926 19.208C154.374 19.064 154.814 18.992 155.246 18.992C155.838 18.992 156.39 19.12 156.902 19.376C157.43 19.616 157.934 20.04 158.414 20.648C158.894 21.24 159.35 22.056 159.782 23.096C160.086 23.816 160.39 24.368 160.694 24.752C160.998 25.136 161.31 25.4 161.63 25.544C161.966 25.688 162.302 25.76 162.638 25.76C163.246 25.76 163.678 25.92 163.934 26.24C164.19 26.544 164.318 26.928 164.318 27.392C164.318 27.888 164.15 28.304 163.814 28.64C163.478 28.96 163.006 29.12 162.398 29.12C161.614 29.12 160.902 28.992 160.262 28.736C159.622 28.48 159.118 28.096 158.75 27.584L159.446 27.056C159.302 27.392 159.086 27.744 158.798 28.112C158.526 28.48 158.166 28.792 157.718 29.048C157.286 29.304 156.766 29.432 156.158 29.432C155.758 29.432 155.286 29.352 154.742 29.192C154.214 29.048 153.662 28.8 153.086 28.448C152.526 28.08 152.006 27.584 151.526 26.96C151.222 27.52 150.886 27.96 150.518 28.28C150.15 28.584 149.718 28.8 149.222 28.928C148.726 29.056 148.126 29.12 147.422 29.12ZM152.918 24.128C153.078 24.368 153.27 24.608 153.494 24.848C153.718 25.088 153.966 25.304 154.238 25.496C154.51 25.672 154.798 25.816 155.102 25.928C155.422 26.04 155.734 26.096 156.038 26.096C156.358 26.096 156.622 25.976 156.83 25.736C157.038 25.48 157.046 25.104 156.854 24.608C156.774 24.4 156.662 24.168 156.518 23.912C156.39 23.64 156.238 23.384 156.062 23.144C155.902 22.904 155.718 22.704 155.51 22.544C155.318 22.384 155.118 22.304 154.91 22.304C154.702 22.304 154.486 22.368 154.262 22.496C154.038 22.624 153.814 22.824 153.59 23.096C153.366 23.352 153.142 23.696 152.918 24.128ZM162.398 29.12L162.638 25.76C163.598 25.76 164.334 25.712 164.846 25.616C165.358 25.52 165.71 25.344 165.902 25.088C166.11 24.816 166.214 24.432 166.214 23.936C166.214 23.488 166.15 22.952 166.022 22.328C165.91 21.704 165.758 21.056 165.566 20.384C165.39 19.712 165.198 19.096 164.99 18.536L168.302 17.624C168.51 18.168 168.71 18.8 168.902 19.52C169.094 20.24 169.254 20.984 169.382 21.752C169.51 22.504 169.574 23.232 169.574 23.936C169.574 25.024 169.398 25.912 169.046 26.6C168.694 27.272 168.198 27.792 167.558 28.16C166.934 28.528 166.182 28.784 165.302 28.928C164.422 29.056 163.454 29.12 162.398 29.12ZM168.326 34.688C167.862 34.688 167.462 34.52 167.126 34.184C166.806 33.864 166.646 33.48 166.646 33.032C166.646 32.568 166.806 32.168 167.126 31.832C167.462 31.496 167.862 31.328 168.326 31.328C168.774 31.328 169.158 31.496 169.478 31.832C169.798 32.168 169.958 32.568 169.958 33.032C169.958 33.48 169.798 33.864 169.478 34.184C169.158 34.52 168.774 34.688 168.326 34.688ZM164.174 34.688C163.71 34.688 163.31 34.52 162.974 34.184C162.654 33.864 162.494 33.48 162.494 33.032C162.494 32.568 162.654 32.168 162.974 31.832C163.31 31.496 163.71 31.328 164.174 31.328C164.622 31.328 165.006 31.496 165.326 31.832C165.646 32.168 165.806 32.568 165.806 33.032C165.806 33.48 165.646 33.864 165.326 34.184C165.006 34.52 164.622 34.688 164.174 34.688ZM171.863 28.04L173.039 24.992C173.631 25.248 174.199 25.44 174.743 25.568C175.287 25.696 175.831 25.76 176.375 25.76C176.935 25.76 177.399 25.712 177.767 25.616C178.151 25.504 178.439 25.344 178.631 25.136C178.823 24.928 178.919 24.68 178.919 24.392C178.919 24.12 178.831 23.744 178.655 23.264C178.495 22.784 178.199 22.16 177.767 21.392C177.335 20.608 176.703 19.64 175.871 18.488L178.727 16.592C179.495 17.68 180.159 18.744 180.719 19.784C181.279 20.808 181.711 21.768 182.015 22.664C182.335 23.544 182.495 24.32 182.495 24.992C182.495 25.824 182.271 26.552 181.823 27.176C181.391 27.784 180.743 28.264 179.879 28.616C179.031 28.968 177.983 29.144 176.735 29.144C176.271 29.144 175.751 29.104 175.175 29.024C174.599 28.944 174.015 28.824 173.423 28.664C172.847 28.504 172.327 28.296 171.863 28.04ZM191.03 29.12C189.542 29.12 188.39 28.968 187.574 28.664C186.774 28.36 186.214 27.888 185.894 27.248C185.574 26.592 185.39 25.768 185.342 24.776L184.838 11.432H188.198L188.702 23.168C188.734 23.904 188.814 24.456 188.942 24.824C189.07 25.192 189.31 25.44 189.662 25.568C190.03 25.696 190.566 25.76 191.27 25.76C191.878 25.76 192.31 25.92 192.566 26.24C192.838 26.544 192.974 26.928 192.974 27.392C192.974 27.888 192.806 28.304 192.47 28.64C192.134 28.96 191.654 29.12 191.03 29.12ZM191.062 29.12L191.303 25.76H194.735C195.071 25.76 195.367 25.744 195.623 25.712C195.879 25.664 196.087 25.592 196.247 25.496C196.423 25.4 196.551 25.28 196.631 25.136C196.711 24.992 196.751 24.824 196.751 24.632C196.751 24.44 196.647 24.136 196.439 23.72C196.247 23.288 195.823 22.768 195.167 22.16C194.815 21.84 194.431 21.504 194.015 21.152C193.615 20.784 193.231 20.44 192.863 20.12C192.495 19.784 192.191 19.488 191.951 19.232C191.711 18.976 191.591 18.792 191.591 18.68C191.591 18.44 191.607 18.176 191.639 17.888C191.671 17.6 191.719 17.336 191.783 17.096C191.863 16.856 191.967 16.68 192.095 16.568C192.367 16.312 192.767 16.016 193.295 15.68C193.839 15.328 194.487 14.952 195.239 14.552C195.991 14.136 196.831 13.704 197.759 13.256C198.703 12.792 199.711 12.328 200.783 11.864L202.151 14.792C201.271 15.176 200.439 15.552 199.655 15.92C198.871 16.272 198.135 16.624 197.447 16.976C196.775 17.312 196.151 17.648 195.575 17.984C195.015 18.304 194.519 18.624 194.087 18.944L194.399 17.168C195.759 18.208 196.839 19.144 197.639 19.976C198.455 20.808 199.063 21.552 199.463 22.208C199.863 22.848 200.127 23.424 200.255 23.936C200.383 24.432 200.447 24.872 200.447 25.256C200.447 25.64 200.351 26.056 200.159 26.504C199.983 26.936 199.655 27.352 199.175 27.752C198.711 28.152 198.055 28.48 197.207 28.736C196.359 28.992 195.271 29.12 193.943 29.12H191.062ZM203.881 29L203.377 11.432H206.737L207.241 29H203.881Z" fill="black"/>
<path d="M254.667 14.1666L228 34.1667V26.34M221.333 14.1666L248 34.1667V26.34M250.747 9.06165L249.648 7.32332C249.042 6.36165 248.738 5.87998 248.34 5.83665C247.943 5.79165 247.498 6.24832 246.61 7.16165C243.74 10.1116 240.87 9.67498 238 14.98C235.13 9.67498 232.26 10.1116 229.39 7.16165C228.502 6.24832 228.057 5.79165 227.66 5.83665C227.262 5.87998 226.958 6.36165 226.352 7.32332L225.255 9.06165C224.83 9.73165 224.618 10.0683 224.677 10.4216C224.733 10.775 225.038 11.0166 225.65 11.5L235.953 19.6633C236.938 20.4433 237.432 20.8333 238 20.8333C238.568 20.8333 239.062 20.4433 240.047 19.6633L250.35 11.5C250.962 11.0166 251.267 10.775 251.323 10.4216C251.382 10.0683 251.17 9.73165 250.747 9.06165Z" stroke="black" stroke-width="3" stroke-linecap="round" stroke-linejoin="round"/>
</svg>
