<svg width="58" height="58" viewBox="0 0 58 58" fill="none" xmlns="http://www.w3.org/2000/svg">
<path d="M39.1112 55.0001C47.8864 55.0001 55.0001 47.8864 55.0001 39.1112C55.0001 30.336 47.8864 23.2223 39.1112 23.2223C30.336 23.2223 23.2223 30.336 23.2223 39.1112C23.2223 47.8864 30.336 55.0001 39.1112 55.0001Z" stroke="#B67332" stroke-width="5" stroke-linecap="round" stroke-linejoin="round"/>
<path d="M39.1111 32.8829V39.1111L43.4444 43.4444" stroke="#B67332" stroke-width="5" stroke-linecap="round" stroke-linejoin="round"/>
<path d="M43.4444 3V8.77778" stroke="#B67332" stroke-width="5" stroke-linecap="round" stroke-linejoin="round"/>
<path d="M14.5555 3V8.77778" stroke="#B67332" stroke-width="5" stroke-linecap="round" stroke-linejoin="round"/>
<path d="M17.533 54.9999C15.7848 54.9999 13.1625 54.9999 9.6661 54.9999C7.34815 54.9999 6.50761 54.7741 5.6602 54.35C4.81279 53.926 4.14774 53.3037 3.69454 52.5108C3.24135 51.7179 3 50.9315 3 48.7626V15.015C3 12.8461 3.24135 12.0597 3.69454 11.2668C4.14774 10.4739 4.81279 9.85159 5.6602 9.42755C6.50761 9.0035 7.34815 8.77768 9.6661 8.77768H48.3339C50.6518 8.77768 51.4924 9.0035 52.3398 9.42755C53.1872 9.85159 53.8523 10.4739 54.3055 11.2668C54.7587 12.0597 55 15.2682 55 17.437" stroke="#B67332" stroke-width="5" stroke-linecap="round" stroke-linejoin="round"/>
</svg>
