<?xml version="1.0" standalone="no"?>
<!DOCTYPE svg PUBLIC "-//W3C//DTD SVG 20010904//EN"
 "http://www.w3.org/TR/2001/REC-SVG-20010904/DTD/svg10.dtd">
<svg version="1.0" xmlns="http://www.w3.org/2000/svg"
 width="300.000000pt" height="300.000000pt" viewBox="0 0 300.000000 300.000000"
 preserveAspectRatio="xMidYMid meet">
<metadata>
Created by potrace 1.10, written by Peter Selinger 2001-2011
</metadata>
<g transform="translate(0.000000,300.000000) scale(0.100000,-0.100000)"
fill="#000000" stroke="none">
<path d="M1350 2674 c-316 -83 -519 -401 -456 -715 27 -131 74 -219 170 -315
128 -129 259 -184 436 -184 177 0 308 55 436 184 96 96 143 184 170 315 21
105 14 197 -21 307 -62 196 -235 357 -440 409 -74 19 -222 18 -295 -1z m335
-50 c272 -96 433 -369 385 -653 -35 -209 -212 -403 -415 -456 -73 -19 -232
-19 -300 -1 -272 72 -453 325 -431 603 18 235 168 427 401 511 51 18 76 21
195 17 77 -2 132 -9 165 -21z"/>
<path d="M980 1473 c-143 -96 -281 -266 -345 -425 -66 -164 -88 -366 -47 -444
93 -180 447 -294 912 -294 465 0 819 114 912 294 41 78 19 280 -47 444 -64
159 -202 329 -345 425 l-52 35 -42 -31 c-104 -80 -283 -137 -426 -137 -143 0
-322 57 -426 137 l-42 31 -52 -35z m127 -63 c124 -75 312 -118 453 -105 132
13 225 45 367 126 l42 24 36 -19 c54 -30 157 -127 213 -204 93 -126 149 -264
172 -425 24 -168 -19 -251 -171 -328 -174 -88 -416 -131 -725 -130 -376 1
-679 75 -814 198 -61 54 -75 93 -73 194 4 258 162 543 383 692 34 24 43 22
117 -23z"/>
</g>
</svg>
