<svg width="65" height="64" viewBox="0 0 65 64" fill="none" xmlns="http://www.w3.org/2000/svg">
<path d="M58.9205 22.5252L16.5205 54.3252V41.8808M5.92047 22.5252L48.3205 54.3252V41.8808M52.6877 14.4082L50.9414 11.6443C49.9768 10.1152 49.4945 9.34935 48.8611 9.28045C48.2304 9.2089 47.5229 9.93501 46.1104 11.3872C41.5471 16.0777 36.9838 15.3834 32.4205 23.8184C27.8572 15.3834 23.2939 16.0777 18.7306 11.3872C17.3181 9.93501 16.6106 9.2089 15.9799 9.28045C15.3465 9.34935 14.8642 10.1152 13.8996 11.6443L12.1559 14.4082C11.4802 15.4735 11.1436 16.0088 11.2364 16.5706C11.3265 17.1324 11.8114 17.5167 12.784 18.2852L29.1663 31.2649C30.7325 32.5051 31.5169 33.1252 32.4205 33.1252C33.3242 33.1252 34.1086 32.5051 35.6747 31.2649L52.057 18.2852C53.0296 17.5167 53.5145 17.1324 53.6046 16.5706C53.6974 16.0088 53.3608 15.4735 52.6877 14.4082Z" stroke="black" stroke-width="4.77001" stroke-linecap="round" stroke-linejoin="round"/>
</svg>
