<svg width="50" height="50" viewBox="0 0 50 50" fill="none" xmlns="http://www.w3.org/2000/svg">
<path opacity="0.2" d="M48.0769 24.9999C48.0769 29.5641 46.7235 34.0258 44.1878 37.8207C41.6521 41.6157 38.0479 44.5735 33.8312 46.3202C29.6144 48.0668 24.9744 48.5238 20.4979 47.6334C16.0215 46.743 11.9095 44.5451 8.68218 41.3177C5.45481 38.0904 3.25695 33.9785 2.36652 29.502C1.47609 25.0255 1.93309 20.3855 3.67973 16.1687C5.42637 11.952 8.3842 8.34786 12.1792 5.81214C15.9742 3.27641 20.4358 1.92297 25 1.92297C31.1204 1.92297 36.9901 4.35428 41.3179 8.68205C45.6456 13.0098 48.0769 18.8795 48.0769 24.9999Z" fill="black"/>
<path d="M27.8846 37.5C27.8846 38.0705 27.7154 38.6282 27.3985 39.1026C27.0815 39.577 26.631 39.9467 26.1039 40.165C25.5768 40.3834 24.9968 40.4405 24.4372 40.3292C23.8777 40.2179 23.3637 39.9431 22.9603 39.5397C22.5569 39.1363 22.2821 38.6223 22.1708 38.0628C22.0595 37.5032 22.1166 36.9232 22.335 36.3961C22.5533 35.869 22.923 35.4185 23.3974 35.1015C23.8718 34.7846 24.4295 34.6154 25 34.6154C25.7651 34.6154 26.4988 34.9193 27.0397 35.4603C27.5807 36.0012 27.8846 36.7349 27.8846 37.5ZM25 11.5385C19.6971 11.5385 15.3846 15.4207 15.3846 20.1923V21.1538C15.3846 21.6639 15.5872 22.153 15.9479 22.5137C16.3085 22.8743 16.7977 23.0769 17.3077 23.0769C17.8177 23.0769 18.3069 22.8743 18.6675 22.5137C19.0282 22.153 19.2308 21.6639 19.2308 21.1538V20.1923C19.2308 17.5481 21.8197 15.3846 25 15.3846C28.1803 15.3846 30.7692 17.5481 30.7692 20.1923C30.7692 22.8365 28.1803 25 25 25C24.49 25 24.0008 25.2026 23.6402 25.5632C23.2795 25.9239 23.0769 26.413 23.0769 26.9231V28.8461C23.0769 29.3562 23.2795 29.8453 23.6402 30.206C24.0008 30.5666 24.49 30.7692 25 30.7692C25.51 30.7692 25.9992 30.5666 26.3598 30.206C26.7205 29.8453 26.9231 29.3562 26.9231 28.8461V28.6731C31.3077 27.8678 34.6154 24.3702 34.6154 20.1923C34.6154 15.4207 30.3029 11.5385 25 11.5385ZM50 25C50 29.9445 48.5338 34.778 45.7867 38.8892C43.0397 43.0005 39.1352 46.2048 34.5671 48.097C29.9989 49.9892 24.9723 50.4842 20.1227 49.5196C15.2732 48.555 10.8187 46.174 7.32234 42.6777C3.82603 39.1814 1.44501 34.7268 0.480379 29.8773C-0.484251 25.0277 0.0108321 20.0011 1.90302 15.4329C3.79521 10.8648 6.99952 6.96029 11.1108 4.21326C15.222 1.46622 20.0555 0 25 0C31.6283 0.00699956 37.983 2.64317 42.6699 7.33006C47.3568 12.017 49.993 18.3717 50 25ZM46.1538 25C46.1538 20.8162 44.9132 16.7263 42.5888 13.2475C40.2644 9.76882 36.9606 7.05748 33.0952 5.45639C29.2299 3.85531 24.9765 3.43639 20.8731 4.25262C16.7697 5.06884 13.0004 7.08355 10.042 10.042C7.08356 13.0004 5.06885 16.7696 4.25263 20.8731C3.4364 24.9765 3.85532 29.2299 5.4564 33.0952C7.05749 36.9606 9.76883 40.2644 13.2476 42.5888C16.7263 44.9132 20.8162 46.1538 25 46.1538C30.6084 46.1475 35.9853 43.9167 39.951 39.951C43.9167 35.9853 46.1475 30.6084 46.1538 25Z" fill="black"/>
</svg>
