<svg width="80" height="80" viewBox="0 0 80 80" fill="none" xmlns="http://www.w3.org/2000/svg">
<circle cx="40" cy="40" r="40" fill="black"/>
<path d="M50.5875 25.995C50.1862 26.0242 49.7924 26.1183 49.4213 26.2737H49.4163C49.06 26.415 47.3663 27.1275 44.7913 28.2075L35.5638 32.0937C28.9425 34.8812 22.4338 37.6262 22.4338 37.6262L22.5113 37.5962C22.5113 37.5962 22.0625 37.7437 21.5938 38.065C21.3042 38.2493 21.055 38.4904 20.8613 38.7737C20.6313 39.1112 20.4463 39.6275 20.515 40.1612C20.6275 41.0637 21.2125 41.605 21.6325 41.9037C22.0575 42.2062 22.4625 42.3475 22.4625 42.3475H22.4725L28.5763 44.4037C28.85 45.2825 30.4363 50.4975 30.8175 51.6987C31.0425 52.4162 31.2613 52.865 31.535 53.2075C31.6675 53.3825 31.8225 53.5287 32.0088 53.6462C32.1056 53.7026 32.2088 53.747 32.3163 53.7787L32.2538 53.7637C32.2725 53.7687 32.2875 53.7837 32.3013 53.7887C32.3513 53.8025 32.385 53.8075 32.4488 53.8175C33.415 54.11 34.1913 53.51 34.1913 53.51L34.235 53.475L37.8388 50.1937L43.8788 54.8275L44.0163 54.8862C45.275 55.4387 46.55 55.1312 47.2238 54.5887C47.9025 54.0425 48.1663 53.3437 48.1663 53.3437L48.21 53.2312L52.8775 29.32C53.01 28.73 53.0438 28.1775 52.8975 27.6412C52.7467 27.0985 52.3985 26.6318 51.9213 26.3325C51.5206 26.0889 51.0559 25.9713 50.5875 25.995ZM50.4613 28.5575C50.4563 28.6362 50.4713 28.6275 50.4363 28.7787V28.7925L45.8125 52.455C45.7925 52.4887 45.7588 52.5625 45.6663 52.6362C45.5688 52.7137 45.4913 52.7625 45.085 52.6012L37.6975 46.9375L33.235 51.005L34.1725 45.0175L46.2425 33.7675C46.74 33.305 46.5738 33.2075 46.5738 33.2075C46.6088 32.64 45.8225 33.0412 45.8225 33.0412L30.6025 42.47L30.5975 42.445L23.3025 39.9887V39.9837L23.2838 39.98C23.2966 39.9757 23.3091 39.9707 23.3213 39.965L23.3613 39.945L23.4 39.9312C23.4 39.9312 29.9138 37.1862 36.535 34.3987C39.85 33.0025 43.19 31.5962 45.7588 30.5112C47.2822 29.87 48.8072 29.2325 50.3338 28.5987C50.4363 28.5587 50.3875 28.5575 50.4613 28.5575Z" fill="#F8F8F8"/>
</svg>
