<svg width="332" height="20" viewBox="0 0 332 20" fill="none" xmlns="http://www.w3.org/2000/svg">
<path d="M3.65875 14.768C4.19208 14.768 4.61342 14.7147 4.92275 14.608C5.24275 14.5013 5.47208 14.3467 5.61075 14.144C5.76008 13.9307 5.83475 13.6853 5.83475 13.408C5.83475 13.1947 5.77608 12.9387 5.65875 12.64C5.55208 12.3413 5.40275 12.0107 5.21075 11.648C5.01875 11.2747 4.79475 10.8853 4.53875 10.48C4.29342 10.064 4.02675 9.64267 3.73875 9.216L4.84275 8.496C5.25875 9.12533 5.62142 9.72267 5.93075 10.288C6.24008 10.8427 6.50142 11.3653 6.71475 11.856C6.92808 12.336 7.09875 12.7893 7.22675 13.216C7.37608 13.6853 7.54142 14.032 7.72275 14.256C7.91475 14.48 8.11208 14.624 8.31475 14.688C8.51742 14.7413 8.70408 14.768 8.87475 14.768C9.09875 14.768 9.26408 14.832 9.37075 14.96C9.47742 15.0773 9.53075 15.2213 9.53075 15.392C9.53075 15.5627 9.45608 15.7227 9.30675 15.872C9.15742 16.0107 8.96542 16.08 8.73075 16.08C8.37875 16.08 8.03208 16.016 7.69075 15.888C7.36008 15.7493 7.07208 15.5307 6.82675 15.232C6.58142 14.9227 6.41075 14.512 6.31475 14L6.95475 13.488C6.95475 13.9147 6.86408 14.3307 6.68275 14.736C6.50142 15.1307 6.17075 15.456 5.69075 15.712C5.22142 15.968 4.54408 16.096 3.65875 16.096C3.27475 16.096 2.90142 16.064 2.53875 16C2.18675 15.936 1.86142 15.8453 1.56275 15.728C1.26408 15.6 1.00275 15.4507 0.77875 15.28L1.41875 14.176C1.63208 14.3147 1.93075 14.448 2.31475 14.576C2.69875 14.704 3.14675 14.768 3.65875 14.768ZM8.73438 16.08L8.89438 14.768C9.52371 14.768 10.0144 14.7467 10.3664 14.704C10.7184 14.6507 10.969 14.528 11.1184 14.336C11.2677 14.1333 11.3424 13.8187 11.3424 13.392C11.3424 13.1253 11.2997 12.8107 11.2144 12.448C11.129 12.0747 11.017 11.68 10.8784 11.264C10.7397 10.848 10.5904 10.4373 10.4304 10.032L11.7264 9.552C11.865 9.89333 11.993 10.2827 12.1104 10.72C12.2384 11.1573 12.345 11.5893 12.4304 12.016C12.5157 12.4427 12.5584 12.816 12.5584 13.136C12.5584 13.6693 12.4837 14.1227 12.3344 14.496C12.1957 14.8693 11.9717 15.1733 11.6624 15.408C11.353 15.6427 10.953 15.8133 10.4624 15.92C9.98238 16.0267 9.40638 16.08 8.73438 16.08ZM11.6944 19.104C11.4704 19.104 11.2784 19.024 11.1184 18.864C10.969 18.7147 10.8944 18.5333 10.8944 18.32C10.8944 18.1067 10.969 17.92 11.1184 17.76C11.2784 17.6 11.4704 17.52 11.6944 17.52C11.9077 17.52 12.089 17.6 12.2384 17.76C12.3984 17.92 12.4784 18.1067 12.4784 18.32C12.4784 18.5333 12.3984 18.7147 12.2384 18.864C12.089 19.024 11.9077 19.104 11.6944 19.104ZM9.50238 19.104C9.27838 19.104 9.08638 19.024 8.92638 18.864C8.77704 18.7147 8.70237 18.5333 8.70237 18.32C8.70237 18.1067 8.77704 17.92 8.92638 17.76C9.08638 17.6 9.27838 17.52 9.50238 17.52C9.71571 17.52 9.89704 17.6 10.0464 17.76C10.2064 17.92 10.2864 18.1067 10.2864 18.32C10.2864 18.5333 10.2064 18.7147 10.0464 18.864C9.89704 19.024 9.71571 19.104 9.50238 19.104ZM13.5796 19.712L13.1156 18.496C13.8943 18.24 14.5396 17.9467 15.0516 17.616C15.5743 17.2853 15.985 16.9333 16.2836 16.56C16.593 16.1867 16.8116 15.808 16.9396 15.424C17.0676 15.0293 17.1316 14.6507 17.1316 14.288C17.1316 13.7653 17.0143 13.2373 16.7796 12.704C16.5556 12.16 16.305 11.648 16.0276 11.168L17.1956 10.576C17.3983 10.9493 17.5743 11.3173 17.7236 11.68C17.8836 12.0427 18.0223 12.384 18.1396 12.704C18.2676 13.024 18.369 13.3173 18.4436 13.584C18.593 14.0427 18.785 14.3573 19.0196 14.528C19.265 14.688 19.5956 14.768 20.0116 14.768C20.2356 14.768 20.3956 14.832 20.4916 14.96C20.5983 15.0773 20.6516 15.2213 20.6516 15.392C20.6516 15.5627 20.577 15.7227 20.4276 15.872C20.2783 16.0107 20.0863 16.08 19.8516 16.08C19.3823 16.08 18.9983 16 18.6996 15.84C18.4116 15.6693 18.193 15.4507 18.0436 15.184C17.8943 14.9067 17.793 14.6187 17.7396 14.32L18.2516 14.608C18.2516 15.312 18.0916 15.952 17.7716 16.528C17.4623 17.1147 17.0623 17.6213 16.5716 18.048C16.081 18.4853 15.569 18.8427 15.0356 19.12C14.5023 19.3973 14.017 19.5947 13.5796 19.712ZM16.1236 8.736C15.8996 8.736 15.7076 8.66133 15.5476 8.512C15.3983 8.352 15.3236 8.16533 15.3236 7.952C15.3236 7.73867 15.3983 7.552 15.5476 7.392C15.7076 7.232 15.8996 7.152 16.1236 7.152C16.337 7.152 16.5183 7.232 16.6676 7.392C16.8276 7.552 16.9076 7.73867 16.9076 7.952C16.9076 8.16533 16.8276 8.352 16.6676 8.512C16.5183 8.66133 16.337 8.736 16.1236 8.736ZM19.8594 16.08L20.0194 14.768C20.318 14.768 20.5527 14.704 20.7234 14.576C20.9047 14.448 21.0754 14.2347 21.2354 13.936C21.406 13.6373 21.6194 13.2373 21.8754 12.736C22.1314 12.224 22.3874 11.808 22.6434 11.488C22.91 11.1573 23.166 10.9013 23.4114 10.72C23.6674 10.528 23.9074 10.3947 24.1314 10.32C24.3554 10.2453 24.5634 10.208 24.7554 10.208C25.1074 10.208 25.422 10.288 25.6994 10.448C25.9767 10.5973 26.238 10.8587 26.4834 11.232C26.7287 11.5947 26.9794 12.096 27.2354 12.736C27.4807 13.3227 27.6994 13.7653 27.8914 14.064C28.094 14.352 28.302 14.544 28.5154 14.64C28.7394 14.7253 28.99 14.768 29.2674 14.768C29.4914 14.768 29.6514 14.832 29.7474 14.96C29.854 15.0773 29.9074 15.2213 29.9074 15.392C29.9074 15.5627 29.8327 15.7227 29.6834 15.872C29.534 16.0107 29.342 16.08 29.1074 16.08C28.6914 16.08 28.3074 16.0107 27.9554 15.872C27.614 15.7333 27.326 15.5147 27.0914 15.216L27.3154 14.88C27.198 15.2107 27.038 15.4827 26.8354 15.696C26.6434 15.8987 26.4247 16.048 26.1794 16.144C25.934 16.2507 25.6727 16.304 25.3954 16.304C25.0434 16.304 24.6807 16.2293 24.3074 16.08C23.9447 15.9307 23.5927 15.7173 23.2514 15.44C22.91 15.1627 22.6114 14.8373 22.3554 14.464C22.078 14.9547 21.8114 15.3173 21.5554 15.552C21.31 15.776 21.054 15.92 20.7874 15.984C20.5207 16.048 20.2114 16.08 19.8594 16.08ZM22.9634 13.248C23.1447 13.5467 23.3367 13.808 23.5394 14.032C23.7527 14.256 23.966 14.4427 24.1794 14.592C24.3927 14.7307 24.6007 14.8373 24.8034 14.912C25.0167 14.976 25.2087 15.008 25.3794 15.008C25.7527 15.008 26.0247 14.8747 26.1954 14.608C26.3767 14.3413 26.3714 13.968 26.1794 13.488C26.0834 13.2427 25.982 13.0027 25.8754 12.768C25.7794 12.5333 25.6727 12.32 25.5554 12.128C25.438 11.9253 25.3047 11.7707 25.1554 11.664C25.006 11.5467 24.8407 11.488 24.6594 11.488C24.4994 11.488 24.3287 11.5413 24.1474 11.648C23.9767 11.7547 23.79 11.936 23.5874 12.192C23.3954 12.448 23.1874 12.8 22.9634 13.248ZM29.1094 16.08L29.2534 14.768C29.8614 14.768 30.288 14.7093 30.5334 14.592C30.7787 14.4747 30.9174 14.2667 30.9494 13.968C30.992 13.6693 31.0027 13.2533 30.9814 12.72L30.6774 4.576H31.9734L32.2934 12.576C32.3147 13.1413 32.2934 13.6427 32.2294 14.08C32.176 14.5173 32.0374 14.8853 31.8134 15.184C31.6 15.4827 31.2747 15.7067 30.8374 15.856C30.4107 16.0053 29.8347 16.08 29.1094 16.08ZM34.7376 16L34.4176 4.576H35.7136L36.0336 16H34.7376ZM82.9219 0.613636V19.75H81.3991V0.613636H82.9219ZM122.323 16.08C121.747 16.08 121.235 16 120.787 15.84C120.35 15.6693 119.998 15.3867 119.731 14.992C119.475 14.5867 119.331 14.0267 119.299 13.312L119.043 7.744H120.339L120.595 13.024C120.627 13.5253 120.718 13.904 120.867 14.16C121.016 14.4053 121.224 14.5707 121.491 14.656C121.768 14.7307 122.099 14.768 122.483 14.768C122.707 14.768 122.867 14.832 122.963 14.96C123.07 15.0773 123.123 15.2213 123.123 15.392C123.123 15.5627 123.048 15.7227 122.899 15.872C122.75 16.0107 122.558 16.08 122.323 16.08ZM119.907 14.32C119.299 14.512 118.707 14.608 118.131 14.608C117.555 14.608 117.032 14.5227 116.563 14.352C116.094 14.1813 115.72 13.936 115.443 13.616C115.166 13.2853 115.027 12.8907 115.027 12.432C115.027 11.984 115.139 11.5627 115.363 11.168C115.598 10.7733 115.912 10.4213 116.307 10.112C116.712 9.80267 117.176 9.54667 117.699 9.344C118.232 9.13067 118.798 8.98667 119.395 8.912L119.619 10.256C119.086 10.2773 118.611 10.352 118.195 10.48C117.79 10.5973 117.443 10.752 117.155 10.944C116.878 11.136 116.664 11.344 116.515 11.568C116.366 11.792 116.291 12.0107 116.291 12.224C116.291 12.4587 116.376 12.6507 116.547 12.8C116.718 12.9493 116.936 13.0667 117.203 13.152C117.47 13.2267 117.763 13.2747 118.083 13.296C118.403 13.3067 118.712 13.296 119.011 13.264C119.31 13.2213 119.566 13.1627 119.779 13.088L119.907 14.32ZM119.571 5.904C119.347 5.904 119.155 5.82933 118.995 5.68C118.846 5.52 118.771 5.33333 118.771 5.12C118.771 4.90667 118.846 4.72 118.995 4.56C119.155 4.4 119.347 4.32 119.571 4.32C119.784 4.32 119.966 4.4 120.115 4.56C120.275 4.72 120.355 4.90667 120.355 5.12C120.355 5.33333 120.275 5.52 120.115 5.68C119.966 5.82933 119.784 5.904 119.571 5.904ZM117.379 5.904C117.155 5.904 116.963 5.82933 116.803 5.68C116.654 5.52 116.579 5.33333 116.579 5.12C116.579 4.90667 116.654 4.72 116.803 4.56C116.963 4.4 117.155 4.32 117.379 4.32C117.592 4.32 117.774 4.4 117.923 4.56C118.083 4.72 118.163 4.90667 118.163 5.12C118.163 5.33333 118.083 5.52 117.923 5.68C117.774 5.82933 117.592 5.904 117.379 5.904ZM122.328 16.08L122.488 14.768C123.021 14.768 123.437 14.7307 123.736 14.656C124.035 14.5707 124.259 14.416 124.408 14.192C124.568 13.9573 124.696 13.6213 124.792 13.184C124.888 12.7467 125.005 12.176 125.144 11.472L126.392 11.712C126.349 11.904 126.301 12.1173 126.248 12.352C126.195 12.5867 126.147 12.8213 126.104 13.056C126.072 13.28 126.056 13.4773 126.056 13.648C126.056 13.808 126.067 13.9573 126.088 14.096C126.109 14.2347 126.189 14.352 126.328 14.448C126.467 14.544 126.701 14.624 127.032 14.688C127.363 14.7413 127.837 14.768 128.456 14.768C128.68 14.768 128.84 14.832 128.936 14.96C129.043 15.0773 129.096 15.2213 129.096 15.392C129.096 15.5627 129.021 15.7227 128.872 15.872C128.723 16.0107 128.531 16.08 128.296 16.08C127.645 16.08 127.128 16.048 126.744 15.984C126.36 15.9093 126.067 15.8027 125.864 15.664C125.672 15.5253 125.533 15.3547 125.448 15.152C125.373 14.9387 125.315 14.6933 125.272 14.416L125.752 14.448C125.581 14.7893 125.395 15.0667 125.192 15.28C125 15.4933 124.776 15.6587 124.52 15.776C124.264 15.8933 123.955 15.9733 123.592 16.016C123.24 16.0587 122.819 16.08 122.328 16.08ZM126.36 19.104C126.136 19.104 125.944 19.024 125.784 18.864C125.635 18.7147 125.56 18.5333 125.56 18.32C125.56 18.1067 125.635 17.92 125.784 17.76C125.944 17.6 126.136 17.52 126.36 17.52C126.573 17.52 126.755 17.6 126.904 17.76C127.064 17.92 127.144 18.1067 127.144 18.32C127.144 18.5333 127.064 18.7147 126.904 18.864C126.755 19.024 126.573 19.104 126.36 19.104ZM124.168 19.104C123.944 19.104 123.752 19.024 123.592 18.864C123.443 18.7147 123.368 18.5333 123.368 18.32C123.368 18.1067 123.443 17.92 123.592 17.76C123.752 17.6 123.944 17.52 124.168 17.52C124.381 17.52 124.563 17.6 124.712 17.76C124.872 17.92 124.952 18.1067 124.952 18.32C124.952 18.5333 124.872 18.7147 124.712 18.864C124.563 19.024 124.381 19.104 124.168 19.104ZM128.297 16.08L128.457 14.768C129.097 14.768 129.7 14.7093 130.265 14.592C130.83 14.464 131.348 14.2987 131.817 14.096C132.297 13.8827 132.708 13.6427 133.049 13.376C133.39 13.0987 133.652 12.816 133.833 12.528C134.025 12.2293 134.121 11.936 134.121 11.648C134.121 11.5093 134.073 11.3707 133.977 11.232C133.881 11.0827 133.716 10.96 133.481 10.864C133.257 10.768 132.953 10.72 132.569 10.72C132.334 10.72 132.073 10.752 131.785 10.816C131.497 10.88 131.22 10.9707 130.953 11.088C130.697 11.1947 130.484 11.3173 130.313 11.456C130.601 11.6907 130.868 11.92 131.113 12.144C131.369 12.368 131.63 12.6133 131.897 12.88C132.164 13.136 132.452 13.4293 132.761 13.76C133.006 13.9413 133.278 14.096 133.577 14.224C133.886 14.352 134.217 14.4587 134.569 14.544C134.932 14.6187 135.3 14.6773 135.673 14.72C136.046 14.752 136.42 14.768 136.793 14.768C137.017 14.768 137.177 14.832 137.273 14.96C137.38 15.0773 137.433 15.2213 137.433 15.392C137.433 15.5627 137.358 15.7227 137.209 15.872C137.06 16.0107 136.868 16.08 136.633 16.08C136.046 16.08 135.444 16.0267 134.825 15.92C134.217 15.8027 133.646 15.632 133.113 15.408C132.58 15.1733 132.126 14.88 131.753 14.528C131.572 14.2933 131.369 14.0587 131.145 13.824C130.921 13.5893 130.676 13.3547 130.409 13.12C130.153 12.8747 129.876 12.6453 129.577 12.432C129.513 12.3787 129.449 12.2827 129.385 12.144C129.321 12.0053 129.268 11.8613 129.225 11.712C129.182 11.5627 129.161 11.4507 129.161 11.376C129.161 11.216 129.262 11.024 129.465 10.8C129.668 10.576 129.94 10.3627 130.281 10.16C130.622 9.94667 131.012 9.77067 131.449 9.632C131.886 9.49333 132.34 9.424 132.809 9.424C133.417 9.424 133.908 9.51467 134.281 9.696C134.665 9.87733 134.942 10.112 135.113 10.4C135.294 10.6773 135.385 10.976 135.385 11.296C135.385 11.7653 135.268 12.2347 135.033 12.704C134.798 13.1627 134.462 13.5947 134.025 14C133.588 14.4053 133.076 14.768 132.489 15.088C131.902 15.3973 131.252 15.6427 130.537 15.824C129.833 15.9947 129.086 16.08 128.297 16.08ZM136.641 16.08L136.801 14.768C137.099 14.768 137.334 14.704 137.505 14.576C137.686 14.448 137.857 14.2347 138.017 13.936C138.187 13.6373 138.401 13.2373 138.657 12.736C138.913 12.224 139.169 11.808 139.425 11.488C139.691 11.1573 139.947 10.9013 140.193 10.72C140.449 10.528 140.689 10.3947 140.913 10.32C141.137 10.2453 141.345 10.208 141.537 10.208C141.889 10.208 142.203 10.288 142.481 10.448C142.758 10.5973 143.019 10.8587 143.265 11.232C143.51 11.5947 143.761 12.096 144.017 12.736C144.262 13.3227 144.481 13.7653 144.673 14.064C144.875 14.352 145.083 14.544 145.297 14.64C145.521 14.7253 145.771 14.768 146.049 14.768C146.273 14.768 146.433 14.832 146.529 14.96C146.635 15.0773 146.689 15.2213 146.689 15.392C146.689 15.5627 146.614 15.7227 146.465 15.872C146.315 16.0107 146.123 16.08 145.889 16.08C145.473 16.08 145.089 16.0107 144.737 15.872C144.395 15.7333 144.107 15.5147 143.873 15.216L144.097 14.88C143.979 15.2107 143.819 15.4827 143.617 15.696C143.425 15.8987 143.206 16.048 142.961 16.144C142.715 16.2507 142.454 16.304 142.177 16.304C141.825 16.304 141.462 16.2293 141.089 16.08C140.726 15.9307 140.374 15.7173 140.033 15.44C139.691 15.1627 139.393 14.8373 139.137 14.464C138.859 14.9547 138.593 15.3173 138.337 15.552C138.091 15.776 137.835 15.92 137.569 15.984C137.302 16.048 136.993 16.08 136.641 16.08ZM139.745 13.248C139.926 13.5467 140.118 13.808 140.321 14.032C140.534 14.256 140.747 14.4427 140.961 14.592C141.174 14.7307 141.382 14.8373 141.585 14.912C141.798 14.976 141.99 15.008 142.161 15.008C142.534 15.008 142.806 14.8747 142.977 14.608C143.158 14.3413 143.153 13.968 142.961 13.488C142.865 13.2427 142.763 13.0027 142.657 12.768C142.561 12.5333 142.454 12.32 142.337 12.128C142.219 11.9253 142.086 11.7707 141.937 11.664C141.787 11.5467 141.622 11.488 141.441 11.488C141.281 11.488 141.11 11.5413 140.929 11.648C140.758 11.7547 140.571 11.936 140.369 12.192C140.177 12.448 139.969 12.8 139.745 13.248ZM156.083 16.08C155.635 16.08 155.224 16.0533 154.851 16C154.477 15.936 154.141 15.824 153.843 15.664C153.544 15.504 153.293 15.2747 153.091 14.976C152.888 14.6667 152.733 14.2613 152.627 13.76L153.571 13.2C153.709 13.6267 153.88 13.952 154.083 14.176C154.285 14.4 154.557 14.5547 154.899 14.64C155.251 14.7253 155.699 14.768 156.243 14.768C156.467 14.768 156.627 14.832 156.723 14.96C156.829 15.0773 156.883 15.2213 156.883 15.392C156.883 15.5627 156.808 15.7227 156.659 15.872C156.509 16.0107 156.317 16.08 156.083 16.08ZM145.891 16.08L146.035 14.768C146.589 14.768 147.133 14.7253 147.667 14.64C148.2 14.5547 148.723 14.432 149.235 14.272C149.747 14.112 150.237 13.92 150.707 13.696C151.187 13.4613 151.64 13.1947 152.067 12.896C151.789 12.6507 151.469 12.4373 151.107 12.256C150.744 12.0747 150.344 11.936 149.907 11.84C149.48 11.7333 149.027 11.68 148.547 11.68C148.376 11.68 148.216 11.6853 148.067 11.696C147.917 11.7067 147.768 11.728 147.619 11.76C147.469 11.7813 147.299 11.8133 147.107 11.856L146.851 10.64C147.139 10.5547 147.427 10.4907 147.715 10.448C148.003 10.3947 148.28 10.368 148.547 10.368C149.101 10.368 149.603 10.4373 150.051 10.576C150.499 10.704 150.904 10.864 151.267 11.056C151.64 11.248 151.987 11.44 152.307 11.632C152.637 11.824 152.957 11.9893 153.267 12.128C153.576 12.256 153.896 12.32 154.227 12.32H154.563L154.675 13.472C154.216 13.472 153.795 13.536 153.411 13.664C153.027 13.792 152.648 13.9573 152.275 14.16C151.912 14.352 151.528 14.56 151.123 14.784C150.717 14.9973 150.269 15.2053 149.779 15.408C149.288 15.6 148.723 15.76 148.083 15.888C147.453 16.016 146.723 16.08 145.891 16.08ZM150.067 18.976C149.843 18.976 149.651 18.896 149.491 18.736C149.341 18.5867 149.267 18.4053 149.267 18.192C149.267 17.9787 149.341 17.792 149.491 17.632C149.651 17.472 149.843 17.392 150.067 17.392C150.28 17.392 150.461 17.472 150.611 17.632C150.771 17.792 150.851 17.9787 150.851 18.192C150.851 18.4053 150.771 18.5867 150.611 18.736C150.461 18.896 150.28 18.976 150.067 18.976ZM156.078 16.08L156.222 14.768C156.83 14.768 157.257 14.7093 157.502 14.592C157.747 14.4747 157.886 14.2667 157.918 13.968C157.961 13.6693 157.971 13.2533 157.95 12.72L157.646 4.576H158.942L159.262 12.576C159.283 13.1413 159.262 13.6427 159.198 14.08C159.145 14.5173 159.006 14.8853 158.782 15.184C158.569 15.4827 158.243 15.7067 157.806 15.856C157.379 16.0053 156.803 16.08 156.078 16.08ZM161.706 16L161.386 4.576H162.682L163.002 16H161.706ZM168.761 16.016C168.761 15.632 168.815 15.2053 168.921 14.736C169.028 14.2667 169.199 13.7493 169.433 13.184L170.585 13.632C170.415 14.08 170.287 14.4907 170.201 14.864C170.116 15.2373 170.073 15.584 170.073 15.904C170.073 16.4907 170.217 16.9653 170.505 17.328C170.804 17.7013 171.199 17.9733 171.689 18.144C172.191 18.3147 172.74 18.4 173.337 18.4C174.063 18.4 174.671 18.32 175.161 18.16C175.652 18.0107 176.041 17.8027 176.329 17.536C176.617 17.2693 176.82 16.9653 176.937 16.624C177.065 16.2933 177.129 15.9467 177.129 15.584C177.129 15.1147 177.092 14.672 177.017 14.256C176.953 13.84 176.863 13.4347 176.745 13.04C176.639 12.6347 176.521 12.224 176.393 11.808L177.689 11.456C177.807 11.8613 177.897 12.192 177.961 12.448C178.025 12.6933 178.073 12.8907 178.105 13.04C178.148 13.1893 178.185 13.3227 178.217 13.44C178.335 13.8347 178.489 14.128 178.681 14.32C178.873 14.5013 179.092 14.624 179.337 14.688C179.593 14.7413 179.855 14.768 180.121 14.768C180.345 14.768 180.505 14.832 180.601 14.96C180.708 15.0773 180.761 15.2213 180.761 15.392C180.761 15.5627 180.687 15.7227 180.537 15.872C180.388 16.0107 180.196 16.08 179.961 16.08C179.513 16.08 179.14 16.0053 178.841 15.856C178.543 15.696 178.308 15.4987 178.137 15.264C177.977 15.0293 177.871 14.784 177.817 14.528L178.473 15.344C178.441 15.888 178.335 16.416 178.153 16.928C177.983 17.4507 177.705 17.92 177.321 18.336C176.937 18.7627 176.415 19.0987 175.753 19.344C175.103 19.5893 174.281 19.712 173.289 19.712C172.681 19.712 172.105 19.6373 171.561 19.488C171.017 19.3387 170.532 19.1093 170.105 18.8C169.689 18.5013 169.359 18.1173 169.113 17.648C168.879 17.1893 168.761 16.6453 168.761 16.016ZM173.593 9.632C173.369 9.632 173.177 9.55733 173.017 9.408C172.868 9.248 172.793 9.06133 172.793 8.848C172.793 8.63467 172.868 8.448 173.017 8.288C173.177 8.128 173.369 8.048 173.593 8.048C173.807 8.048 173.988 8.128 174.137 8.288C174.297 8.448 174.377 8.63467 174.377 8.848C174.377 9.06133 174.297 9.248 174.137 9.408C173.988 9.55733 173.807 9.632 173.593 9.632ZM179.969 16.08L180.129 14.768C180.801 14.768 181.318 14.7627 181.681 14.752C182.054 14.7413 182.326 14.7307 182.497 14.72C182.667 14.6987 182.785 14.688 182.849 14.688C182.657 14.5813 182.433 14.416 182.177 14.192C181.921 13.9573 181.697 13.664 181.505 13.312C181.313 12.9493 181.217 12.5227 181.217 12.032C181.217 11.424 181.355 10.8907 181.633 10.432C181.921 9.97333 182.31 9.616 182.801 9.36C183.302 9.104 183.873 8.976 184.513 8.976C184.758 8.976 185.019 8.99733 185.297 9.04C185.574 9.08267 185.841 9.14667 186.097 9.232L185.825 10.464C185.611 10.4107 185.387 10.368 185.153 10.336C184.918 10.304 184.705 10.288 184.513 10.288C184.129 10.288 183.787 10.3627 183.489 10.512C183.19 10.6507 182.955 10.848 182.785 11.104C182.614 11.36 182.529 11.6693 182.529 12.032C182.529 12.3093 182.587 12.5653 182.705 12.8C182.822 13.024 182.977 13.2267 183.169 13.408C183.361 13.5893 183.574 13.7387 183.809 13.856C184.043 13.9733 184.273 14.064 184.497 14.128C184.731 14.192 184.939 14.2187 185.121 14.208C185.249 14.1653 185.366 14.128 185.473 14.096C185.579 14.064 185.697 14.0267 185.825 13.984C185.963 13.9307 186.129 13.8613 186.321 13.776C186.523 13.6907 186.779 13.5787 187.089 13.44L187.537 14.608C186.822 14.896 186.091 15.152 185.345 15.376C184.609 15.6 183.803 15.776 182.929 15.904C182.065 16.0213 181.078 16.08 179.969 16.08ZM225.391 0.613636V19.75H223.868V0.613636H225.391ZM256.323 16.08C255.747 16.08 255.235 16 254.787 15.84C254.35 15.6693 253.998 15.3867 253.731 14.992C253.475 14.5867 253.331 14.0267 253.299 13.312L253.043 7.744H254.339L254.595 13.024C254.627 13.5253 254.718 13.904 254.867 14.16C255.016 14.4053 255.224 14.5707 255.491 14.656C255.768 14.7307 256.099 14.768 256.483 14.768C256.707 14.768 256.867 14.832 256.963 14.96C257.07 15.0773 257.123 15.2213 257.123 15.392C257.123 15.5627 257.048 15.7227 256.899 15.872C256.75 16.0107 256.558 16.08 256.323 16.08ZM253.907 14.32C253.299 14.512 252.707 14.608 252.131 14.608C251.555 14.608 251.032 14.5227 250.563 14.352C250.094 14.1813 249.72 13.936 249.443 13.616C249.166 13.2853 249.027 12.8907 249.027 12.432C249.027 11.984 249.139 11.5627 249.363 11.168C249.598 10.7733 249.912 10.4213 250.307 10.112C250.712 9.80267 251.176 9.54667 251.699 9.344C252.232 9.13067 252.798 8.98667 253.395 8.912L253.619 10.256C253.086 10.2773 252.611 10.352 252.195 10.48C251.79 10.5973 251.443 10.752 251.155 10.944C250.878 11.136 250.664 11.344 250.515 11.568C250.366 11.792 250.291 12.0107 250.291 12.224C250.291 12.4587 250.376 12.6507 250.547 12.8C250.718 12.9493 250.936 13.0667 251.203 13.152C251.47 13.2267 251.763 13.2747 252.083 13.296C252.403 13.3067 252.712 13.296 253.011 13.264C253.31 13.2213 253.566 13.1627 253.779 13.088L253.907 14.32ZM253.571 5.904C253.347 5.904 253.155 5.82933 252.995 5.68C252.846 5.52 252.771 5.33333 252.771 5.12C252.771 4.90667 252.846 4.72 252.995 4.56C253.155 4.4 253.347 4.32 253.571 4.32C253.784 4.32 253.966 4.4 254.115 4.56C254.275 4.72 254.355 4.90667 254.355 5.12C254.355 5.33333 254.275 5.52 254.115 5.68C253.966 5.82933 253.784 5.904 253.571 5.904ZM251.379 5.904C251.155 5.904 250.963 5.82933 250.803 5.68C250.654 5.52 250.579 5.33333 250.579 5.12C250.579 4.90667 250.654 4.72 250.803 4.56C250.963 4.4 251.155 4.32 251.379 4.32C251.592 4.32 251.774 4.4 251.923 4.56C252.083 4.72 252.163 4.90667 252.163 5.12C252.163 5.33333 252.083 5.52 251.923 5.68C251.774 5.82933 251.592 5.904 251.379 5.904ZM256.328 16.08L256.472 14.768C257.08 14.768 257.507 14.7093 257.752 14.592C257.997 14.4747 258.136 14.2667 258.168 13.968C258.211 13.6693 258.221 13.2533 258.2 12.72L257.896 4.576H259.192L259.512 12.576C259.533 13.1413 259.512 13.6427 259.448 14.08C259.395 14.5173 259.256 14.8853 259.032 15.184C258.819 15.4827 258.493 15.7067 258.056 15.856C257.629 16.0053 257.053 16.08 256.328 16.08ZM261.412 19.68L261.124 18.368C261.764 18.2827 262.351 18.16 262.884 18C263.428 17.8507 263.892 17.632 264.276 17.344C264.671 17.056 264.975 16.6773 265.188 16.208C265.402 15.7387 265.508 15.152 265.508 14.448C265.508 14.1173 265.476 13.8027 265.412 13.504C265.348 13.1947 265.252 12.9227 265.124 12.688C264.996 12.4533 264.842 12.2667 264.66 12.128C264.49 11.9893 264.292 11.92 264.068 11.92C263.823 11.92 263.599 12.016 263.396 12.208C263.204 12.3893 263.05 12.624 262.932 12.912C262.826 13.2 262.772 13.488 262.772 13.776C262.772 14 262.815 14.1973 262.9 14.368C262.996 14.528 263.151 14.6507 263.364 14.736C263.578 14.8213 263.855 14.864 264.196 14.864C264.506 14.864 264.815 14.832 265.124 14.768C265.444 14.704 265.716 14.6187 265.94 14.512L266.004 15.632C265.748 15.8133 265.444 15.9413 265.092 16.016C264.751 16.0907 264.404 16.128 264.052 16.128C263.647 16.128 263.284 16.0853 262.964 16C262.655 15.9147 262.388 15.792 262.164 15.632C261.951 15.4613 261.786 15.248 261.668 14.992C261.562 14.736 261.508 14.4373 261.508 14.096C261.508 13.6907 261.572 13.2853 261.7 12.88C261.828 12.464 262.01 12.0853 262.244 11.744C262.479 11.4027 262.762 11.1307 263.092 10.928C263.423 10.7147 263.791 10.608 264.196 10.608C264.623 10.608 264.996 10.72 265.316 10.944C265.636 11.1573 265.903 11.4507 266.116 11.824C266.33 12.1973 266.49 12.6187 266.596 13.088C266.703 13.5573 266.756 14.0427 266.756 14.544C266.756 15.536 266.554 16.3893 266.148 17.104C265.754 17.8293 265.156 18.4053 264.356 18.832C263.567 19.2587 262.586 19.5413 261.412 19.68ZM269.113 16L268.793 4.576H270.089L270.409 16H269.113ZM274.893 14.768C275.426 14.768 275.848 14.7147 276.157 14.608C276.477 14.5013 276.706 14.3467 276.845 14.144C276.994 13.9307 277.069 13.6853 277.069 13.408C277.069 13.1947 277.01 12.9387 276.893 12.64C276.786 12.3413 276.637 12.0107 276.445 11.648C276.253 11.2747 276.029 10.8853 275.773 10.48C275.528 10.064 275.261 9.64267 274.973 9.216L276.077 8.496C276.493 9.12533 276.856 9.72267 277.165 10.288C277.474 10.8427 277.736 11.3653 277.949 11.856C278.162 12.336 278.333 12.7893 278.461 13.216C278.61 13.6853 278.776 14.032 278.957 14.256C279.149 14.48 279.346 14.624 279.549 14.688C279.752 14.7413 279.938 14.768 280.109 14.768C280.333 14.768 280.498 14.832 280.605 14.96C280.712 15.0773 280.765 15.2213 280.765 15.392C280.765 15.5627 280.69 15.7227 280.541 15.872C280.392 16.0107 280.2 16.08 279.965 16.08C279.613 16.08 279.266 16.016 278.925 15.888C278.594 15.7493 278.306 15.5307 278.061 15.232C277.816 14.9227 277.645 14.512 277.549 14L278.189 13.488C278.189 13.9147 278.098 14.3307 277.917 14.736C277.736 15.1307 277.405 15.456 276.925 15.712C276.456 15.968 275.778 16.096 274.893 16.096C274.509 16.096 274.136 16.064 273.773 16C273.421 15.936 273.096 15.8453 272.797 15.728C272.498 15.6 272.237 15.4507 272.013 15.28L272.653 14.176C272.866 14.3147 273.165 14.448 273.549 14.576C273.933 14.704 274.381 14.768 274.893 14.768ZM279.969 16.08L280.129 14.768C280.662 14.768 281.078 14.7307 281.377 14.656C281.675 14.5707 281.899 14.416 282.049 14.192C282.209 13.9573 282.337 13.6213 282.433 13.184C282.529 12.7467 282.646 12.176 282.785 11.472L284.033 11.712C283.99 11.904 283.942 12.1173 283.889 12.352C283.835 12.5867 283.787 12.8213 283.745 13.056C283.713 13.28 283.697 13.4773 283.697 13.648C283.697 13.808 283.707 13.9573 283.729 14.096C283.75 14.2347 283.83 14.352 283.969 14.448C284.107 14.544 284.342 14.624 284.673 14.688C285.003 14.7413 285.478 14.768 286.097 14.768C286.321 14.768 286.481 14.832 286.577 14.96C286.683 15.0773 286.737 15.2213 286.737 15.392C286.737 15.5627 286.662 15.7227 286.513 15.872C286.363 16.0107 286.171 16.08 285.937 16.08C285.286 16.08 284.769 16.048 284.385 15.984C284.001 15.9093 283.707 15.8027 283.505 15.664C283.313 15.5253 283.174 15.3547 283.089 15.152C283.014 14.9387 282.955 14.6933 282.913 14.416L283.393 14.448C283.222 14.7893 283.035 15.0667 282.833 15.28C282.641 15.4933 282.417 15.6587 282.161 15.776C281.905 15.8933 281.595 15.9733 281.233 16.016C280.881 16.0587 280.459 16.08 279.969 16.08ZM284.241 9.824C284.017 9.824 283.825 9.74933 283.665 9.6C283.515 9.44 283.441 9.25333 283.441 9.04C283.441 8.82667 283.515 8.64 283.665 8.48C283.825 8.32 284.017 8.24 284.241 8.24C284.454 8.24 284.635 8.32 284.785 8.48C284.945 8.64 285.025 8.82667 285.025 9.04C285.025 9.25333 284.945 9.44 284.785 9.6C284.635 9.74933 284.454 9.824 284.241 9.824ZM282.049 9.824C281.825 9.824 281.633 9.74933 281.473 9.6C281.323 9.44 281.249 9.25333 281.249 9.04C281.249 8.82667 281.323 8.64 281.473 8.48C281.633 8.32 281.825 8.24 282.049 8.24C282.262 8.24 282.443 8.32 282.593 8.48C282.753 8.64 282.833 8.82667 282.833 9.04C282.833 9.25333 282.753 9.44 282.593 9.6C282.443 9.74933 282.262 9.824 282.049 9.824ZM285.938 16.08L286.098 14.768C286.396 14.768 286.647 14.704 286.85 14.576C287.052 14.448 287.25 14.2347 287.442 13.936C287.634 13.6373 287.842 13.2373 288.066 12.736C288.375 12.0533 288.679 11.536 288.978 11.184C289.287 10.832 289.591 10.592 289.89 10.464C290.199 10.336 290.503 10.272 290.802 10.272C291.164 10.272 291.5 10.368 291.81 10.56C292.119 10.7413 292.391 10.9867 292.626 11.296C292.86 11.6053 293.042 11.9467 293.17 12.32C293.308 12.6827 293.378 13.0453 293.378 13.408C293.378 14.048 293.266 14.56 293.042 14.944C292.818 15.3173 292.53 15.5893 292.178 15.76C291.836 15.92 291.479 16 291.106 16C290.775 16 290.348 15.936 289.826 15.808C289.314 15.68 288.663 15.3547 287.874 14.832L288.498 13.824C289.02 14.1547 289.49 14.384 289.906 14.512C290.332 14.6293 290.684 14.688 290.962 14.688C291.271 14.688 291.516 14.6453 291.698 14.56C291.879 14.464 292.012 14.3307 292.098 14.16C292.183 13.9893 292.226 13.7973 292.226 13.584C292.226 13.2747 292.151 12.9653 292.002 12.656C291.852 12.3467 291.66 12.0907 291.426 11.888C291.202 11.6853 290.962 11.584 290.706 11.584C290.514 11.584 290.327 11.6373 290.146 11.744C289.964 11.8507 289.778 12.048 289.586 12.336C289.394 12.624 289.175 13.04 288.93 13.584C288.674 14.16 288.428 14.6187 288.194 14.96C287.97 15.2907 287.74 15.536 287.506 15.696C287.271 15.856 287.026 15.9573 286.77 16C286.524 16.0533 286.247 16.08 285.938 16.08ZM306.354 16.08C305.778 16.08 305.266 16 304.818 15.84C304.381 15.6693 304.029 15.3867 303.762 14.992C303.506 14.5867 303.362 14.0267 303.33 13.312L303.074 7.744H304.37L304.626 13.024C304.658 13.5253 304.749 13.904 304.898 14.16C305.047 14.4053 305.255 14.5707 305.522 14.656C305.799 14.7307 306.13 14.768 306.514 14.768C306.738 14.768 306.898 14.832 306.994 14.96C307.101 15.0773 307.154 15.2213 307.154 15.392C307.154 15.5627 307.079 15.7227 306.93 15.872C306.781 16.0107 306.589 16.08 306.354 16.08ZM303.938 14.32C303.33 14.512 302.738 14.608 302.162 14.608C301.586 14.608 301.063 14.5227 300.594 14.352C300.125 14.1813 299.751 13.936 299.474 13.616C299.197 13.2853 299.058 12.8907 299.058 12.432C299.058 11.984 299.17 11.5627 299.394 11.168C299.629 10.7733 299.943 10.4213 300.338 10.112C300.743 9.80267 301.207 9.54667 301.73 9.344C302.263 9.13067 302.829 8.98667 303.426 8.912L303.65 10.256C303.117 10.2773 302.642 10.352 302.226 10.48C301.821 10.5973 301.474 10.752 301.186 10.944C300.909 11.136 300.695 11.344 300.546 11.568C300.397 11.792 300.322 12.0107 300.322 12.224C300.322 12.4587 300.407 12.6507 300.578 12.8C300.749 12.9493 300.967 13.0667 301.234 13.152C301.501 13.2267 301.794 13.2747 302.114 13.296C302.434 13.3067 302.743 13.296 303.042 13.264C303.341 13.2213 303.597 13.1627 303.81 13.088L303.938 14.32ZM303.602 5.904C303.378 5.904 303.186 5.82933 303.026 5.68C302.877 5.52 302.802 5.33333 302.802 5.12C302.802 4.90667 302.877 4.72 303.026 4.56C303.186 4.4 303.378 4.32 303.602 4.32C303.815 4.32 303.997 4.4 304.146 4.56C304.306 4.72 304.386 4.90667 304.386 5.12C304.386 5.33333 304.306 5.52 304.146 5.68C303.997 5.82933 303.815 5.904 303.602 5.904ZM301.41 5.904C301.186 5.904 300.994 5.82933 300.834 5.68C300.685 5.52 300.61 5.33333 300.61 5.12C300.61 4.90667 300.685 4.72 300.834 4.56C300.994 4.4 301.186 4.32 301.41 4.32C301.623 4.32 301.805 4.4 301.954 4.56C302.114 4.72 302.194 4.90667 302.194 5.12C302.194 5.33333 302.114 5.52 301.954 5.68C301.805 5.82933 301.623 5.904 301.41 5.904ZM306.359 16.08L306.503 14.768C307.111 14.768 307.538 14.7093 307.783 14.592C308.029 14.4747 308.167 14.2667 308.199 13.968C308.242 13.6693 308.253 13.2533 308.231 12.72L307.959 4.576H309.287L309.543 12.688C309.565 13.232 309.65 13.6587 309.799 13.968C309.959 14.2667 310.173 14.4747 310.439 14.592C310.706 14.7093 310.999 14.768 311.319 14.768C311.543 14.768 311.703 14.832 311.799 14.96C311.906 15.0773 311.959 15.2213 311.959 15.392C311.959 15.5627 311.885 15.7227 311.735 15.872C311.586 16.0107 311.394 16.08 311.159 16.08C310.711 16.08 310.338 16.0107 310.039 15.872C309.751 15.7227 309.522 15.536 309.351 15.312C309.191 15.0773 309.085 14.832 309.031 14.576L309.367 14.608C309.261 14.928 309.085 15.2 308.839 15.424C308.605 15.6373 308.285 15.8027 307.879 15.92C307.474 16.0267 306.967 16.08 306.359 16.08ZM311.156 16.08L311.316 14.768C311.764 14.768 312.116 14.7307 312.372 14.656C312.628 14.5707 312.82 14.416 312.948 14.192C313.087 13.9573 313.204 13.6213 313.3 13.184C313.396 12.7467 313.514 12.176 313.652 11.472L314.9 11.712C314.858 11.904 314.81 12.1173 314.756 12.352C314.703 12.5867 314.655 12.8213 314.612 13.056C314.58 13.28 314.564 13.4773 314.564 13.648C314.564 13.8613 314.612 14.0533 314.708 14.224C314.804 14.3947 315.012 14.528 315.332 14.624C315.652 14.72 316.143 14.768 316.804 14.768C317.028 14.768 317.188 14.832 317.284 14.96C317.391 15.0773 317.444 15.2213 317.444 15.392C317.444 15.5627 317.37 15.7227 317.22 15.872C317.071 16.0107 316.879 16.08 316.644 16.08C315.951 16.08 315.407 16.0213 315.012 15.904C314.618 15.776 314.33 15.5893 314.148 15.344C313.967 15.088 313.844 14.7787 313.78 14.416L314.26 14.448C314.09 14.7893 313.903 15.0667 313.7 15.28C313.508 15.4933 313.295 15.6587 313.06 15.776C312.826 15.8933 312.554 15.9733 312.244 16.016C311.935 16.0587 311.572 16.08 311.156 16.08ZM312.196 9.712L312.004 8.848C312.282 8.784 312.506 8.73067 312.676 8.688C312.847 8.64533 313.039 8.59733 313.252 8.544L313.172 8.88C312.895 8.79467 312.628 8.61333 312.372 8.336C312.127 8.05867 312.004 7.744 312.004 7.392C312.004 7.072 312.079 6.80533 312.228 6.592C312.388 6.368 312.591 6.20267 312.836 6.096C313.092 5.98933 313.364 5.936 313.652 5.936C313.77 5.936 313.892 5.94667 314.02 5.968C314.159 5.98933 314.287 6.02133 314.404 6.064L314.276 6.864C314.17 6.84267 314.068 6.82133 313.972 6.8C313.876 6.77867 313.77 6.768 313.652 6.768C313.407 6.768 313.215 6.82133 313.076 6.928C312.938 7.024 312.868 7.16267 312.868 7.344C312.868 7.568 312.938 7.76 313.076 7.92C313.226 8.08 313.391 8.208 313.572 8.304C313.764 8.38933 313.919 8.432 314.036 8.432L313.38 8.496C313.668 8.42133 313.935 8.34667 314.18 8.272C314.436 8.18667 314.666 8.10667 314.868 8.032L315.124 8.848C314.868 8.944 314.564 9.04533 314.212 9.152C313.871 9.25867 313.524 9.36 313.172 9.456C312.82 9.552 312.495 9.63733 312.196 9.712ZM316.641 16.08L316.801 14.768C317.142 14.768 317.419 14.7467 317.633 14.704C317.846 14.6507 318.022 14.528 318.161 14.336C318.31 14.1333 318.449 13.8187 318.577 13.392C318.705 12.9653 318.854 12.368 319.025 11.6L320.225 11.936C320.182 12.1173 320.134 12.3253 320.081 12.56C320.027 12.784 319.979 13.0187 319.937 13.264C319.894 13.4987 319.873 13.7173 319.873 13.92C319.873 14.1867 319.974 14.3947 320.177 14.544C320.379 14.6933 320.747 14.768 321.281 14.768C321.601 14.768 321.862 14.7413 322.065 14.688C322.267 14.6347 322.433 14.5067 322.561 14.304C322.699 14.1013 322.822 13.776 322.929 13.328C323.035 12.88 323.147 12.2667 323.265 11.488L324.481 11.712C324.449 11.904 324.411 12.1387 324.369 12.416C324.326 12.6933 324.283 12.9707 324.241 13.248C324.209 13.5147 324.193 13.7387 324.193 13.92C324.193 14.0693 324.225 14.2133 324.289 14.352C324.363 14.48 324.502 14.5813 324.705 14.656C324.918 14.7307 325.233 14.768 325.649 14.768C325.958 14.768 326.225 14.7307 326.449 14.656C326.683 14.5813 326.859 14.4427 326.977 14.24C327.105 14.0373 327.169 13.7547 327.169 13.392C327.169 12.9867 327.073 12.48 326.881 11.872C326.699 11.2533 326.491 10.64 326.257 10.032L327.553 9.552C327.691 9.89333 327.819 10.2827 327.937 10.72C328.065 11.1573 328.171 11.5893 328.257 12.016C328.342 12.4427 328.385 12.816 328.385 13.136C328.385 13.6267 328.321 14.0587 328.193 14.432C328.065 14.8053 327.883 15.1147 327.649 15.36C327.414 15.5947 327.126 15.776 326.785 15.904C326.443 16.0213 326.059 16.08 325.633 16.08C325.131 16.08 324.721 16.0213 324.401 15.904C324.081 15.7867 323.835 15.6107 323.665 15.376C323.494 15.1307 323.382 14.8213 323.329 14.448H323.873C323.67 14.9067 323.457 15.2533 323.233 15.488C323.009 15.7227 322.731 15.8827 322.401 15.968C322.07 16.0427 321.633 16.08 321.089 16.08C320.822 16.08 320.534 16.0373 320.225 15.952C319.926 15.8667 319.665 15.7013 319.441 15.456C319.217 15.2 319.083 14.8213 319.041 14.32L319.521 14.224C319.339 14.768 319.115 15.1733 318.849 15.44C318.593 15.696 318.283 15.8667 317.921 15.952C317.558 16.0373 317.131 16.08 316.641 16.08ZM330.66 16L330.34 4.576H331.636L331.956 16H330.66Z" fill="#83838C"/>
</svg>
